<svg xmlns="http://www.w3.org/2000/svg" xmlns:xlink="http://www.w3.org/1999/xlink" width="500" zoomAndPan="magnify" viewBox="0 0 375 374.999991" height="500" preserveAspectRatio="xMidYMid meet" version="1.0"><defs><clipPath id="998fe61a39"><path d="M 139.1875 33.601562 L 341.621094 33.601562 L 341.621094 134.621094 L 139.1875 134.621094 Z M 139.1875 33.601562 " clip-rule="nonzero"/></clipPath><clipPath id="f2f7c0c9db"><path d="M 145.1875 33.601562 L 335.421875 33.601562 C 337.011719 33.601562 338.539062 34.234375 339.664062 35.359375 C 340.789062 36.484375 341.421875 38.011719 341.421875 39.601562 L 341.421875 128.621094 C 341.421875 130.214844 340.789062 131.738281 339.664062 132.867188 C 338.539062 133.992188 337.011719 134.621094 335.421875 134.621094 L 145.1875 134.621094 C 143.597656 134.621094 142.070312 133.992188 140.945312 132.867188 C 139.820312 131.738281 139.1875 130.214844 139.1875 128.621094 L 139.1875 39.601562 C 139.1875 38.011719 139.820312 36.484375 140.945312 35.359375 C 142.070312 34.234375 143.597656 33.601562 145.1875 33.601562 Z M 145.1875 33.601562 " clip-rule="nonzero"/></clipPath><clipPath id="0f5e644363"><path d="M 33.183594 138.519531 L 134.828125 138.519531 L 134.828125 341.417969 L 33.183594 341.417969 Z M 33.183594 138.519531 " clip-rule="nonzero"/></clipPath><clipPath id="ed70df71b2"><path d="M 39.578125 138.914062 L 128.828125 138.914062 C 130.421875 138.914062 131.949219 139.546875 133.074219 140.671875 C 134.199219 141.796875 134.828125 143.324219 134.828125 144.914062 L 134.828125 335.398438 C 134.828125 336.988281 134.199219 338.515625 133.074219 339.640625 C 131.949219 340.765625 130.421875 341.398438 128.828125 341.398438 L 39.578125 341.398438 C 37.988281 341.398438 36.460938 340.765625 35.335938 339.640625 C 34.210938 338.515625 33.578125 336.988281 33.578125 335.398438 L 33.578125 144.914062 C 33.578125 143.324219 34.210938 141.796875 35.335938 140.671875 C 36.460938 139.546875 37.988281 138.914062 39.578125 138.914062 Z M 39.578125 138.914062 " clip-rule="nonzero"/></clipPath><clipPath id="7a679d5004"><path d="M 191.257812 190.949219 L 341.421875 190.949219 L 341.421875 341.703125 L 191.257812 341.703125 Z M 191.257812 190.949219 " clip-rule="nonzero"/></clipPath><clipPath id="24b4750213"><path d="M 197.257812 190.949219 L 335.421875 190.949219 C 337.011719 190.949219 338.539062 191.582031 339.664062 192.707031 C 340.789062 193.832031 341.421875 195.359375 341.421875 196.949219 L 341.421875 335.398438 C 341.421875 336.988281 340.789062 338.515625 339.664062 339.640625 C 338.539062 340.765625 337.011719 341.398438 335.421875 341.398438 L 197.257812 341.398438 C 195.664062 341.398438 194.140625 340.765625 193.015625 339.640625 C 191.886719 338.515625 191.257812 336.988281 191.257812 335.398438 L 191.257812 196.949219 C 191.257812 195.359375 191.886719 193.832031 193.015625 192.707031 C 194.140625 191.582031 195.664062 190.949219 197.257812 190.949219 Z M 197.257812 190.949219 " clip-rule="nonzero"/></clipPath><clipPath id="4cfe001d04"><path d="M 33.578125 33.601562 L 125.808594 33.601562 L 125.808594 125.476562 L 33.578125 125.476562 Z M 33.578125 33.601562 " clip-rule="nonzero"/></clipPath><clipPath id="00d10d133b"><path d="M 39.578125 33.601562 L 119.597656 33.601562 C 121.191406 33.601562 122.714844 34.234375 123.839844 35.359375 C 124.96875 36.484375 125.597656 38.011719 125.597656 39.601562 L 125.597656 119.476562 C 125.597656 121.066406 124.96875 122.59375 123.839844 123.71875 C 122.714844 124.84375 121.191406 125.476562 119.597656 125.476562 L 39.578125 125.476562 C 37.988281 125.476562 36.460938 124.84375 35.335938 123.71875 C 34.210938 122.59375 33.578125 121.066406 33.578125 119.476562 L 33.578125 39.601562 C 33.578125 38.011719 34.210938 36.484375 35.335938 35.359375 C 36.460938 34.234375 37.988281 33.601562 39.578125 33.601562 Z M 39.578125 33.601562 " clip-rule="nonzero"/></clipPath><clipPath id="3ea6331911"><path d="M 107 106 L 226 106 L 226 226 L 107 226 Z M 107 106 " clip-rule="nonzero"/></clipPath><clipPath id="3e72333e5f"><path d="M 104.652344 166.085938 L 166.433594 104.304688 L 228.460938 166.328125 L 166.675781 228.113281 Z M 104.652344 166.085938 " clip-rule="nonzero"/></clipPath><clipPath id="60102dfb4a"><path d="M 108.894531 161.84375 L 162.191406 108.546875 C 163.316406 107.421875 164.84375 106.789062 166.433594 106.789062 C 168.027344 106.789062 169.550781 107.421875 170.675781 108.546875 L 224.210938 162.078125 C 225.335938 163.203125 225.96875 164.730469 225.96875 166.320312 C 225.96875 167.914062 225.335938 169.4375 224.210938 170.5625 L 170.910156 223.863281 C 169.785156 224.988281 168.261719 225.621094 166.667969 225.621094 C 165.078125 225.621094 163.550781 224.988281 162.425781 223.863281 L 108.894531 170.328125 C 107.769531 169.203125 107.136719 167.679688 107.136719 166.085938 C 107.136719 164.496094 107.769531 162.96875 108.894531 161.84375 Z M 108.894531 161.84375 " clip-rule="nonzero"/></clipPath><clipPath id="12a27ee8fc"><path d="M 107 106 L 226 106 L 226 226 L 107 226 Z M 107 106 " clip-rule="nonzero"/></clipPath><clipPath id="0a396e35ac"><path d="M 104.652344 166.085938 L 166.699219 104.039062 L 228.746094 166.085938 L 166.699219 228.136719 Z M 104.652344 166.085938 " clip-rule="nonzero"/></clipPath><clipPath id="ac9ea7bc30"><path d="M 104.652344 166.085938 L 167.660156 103.074219 L 230.671875 166.085938 L 167.660156 229.097656 Z M 104.652344 166.085938 " clip-rule="nonzero"/></clipPath><clipPath id="2a3ab51ef5"><path d="M 108.894531 161.84375 L 162.191406 108.546875 C 163.316406 107.421875 164.839844 106.789062 166.433594 106.789062 C 168.023438 106.789062 169.550781 107.421875 170.675781 108.546875 L 224.207031 162.078125 C 225.332031 163.203125 225.964844 164.730469 225.964844 166.320312 C 225.964844 167.910156 225.332031 169.4375 224.207031 170.5625 L 170.910156 223.859375 C 169.785156 224.984375 168.257812 225.617188 166.667969 225.617188 C 165.074219 225.617188 163.550781 224.984375 162.425781 223.859375 L 108.894531 170.328125 C 107.769531 169.203125 107.136719 167.675781 107.136719 166.085938 C 107.136719 164.496094 107.769531 162.96875 108.894531 161.84375 Z M 108.894531 161.84375 " clip-rule="nonzero"/></clipPath></defs><rect x="-37.5" width="450" fill="#ffffff" y="-37.499999" height="449.999989" fill-opacity="1"/><rect x="-37.5" width="450" fill="#ffffff" y="-37.499999" height="449.999989" fill-opacity="1"/><g clip-path="url(#998fe61a39)"><g clip-path="url(#f2f7c0c9db)"><path fill="#737373" d="M 139.1875 33.601562 L 341.226562 33.601562 L 341.226562 134.621094 L 139.1875 134.621094 Z M 139.1875 33.601562 " fill-opacity="1" fill-rule="nonzero"/></g></g><g clip-path="url(#0f5e644363)"><g clip-path="url(#ed70df71b2)"><path fill="#737373" d="M 33.578125 138.914062 L 134.828125 138.914062 L 134.828125 341.417969 L 33.578125 341.417969 Z M 33.578125 138.914062 " fill-opacity="1" fill-rule="nonzero"/></g></g><g clip-path="url(#7a679d5004)"><g clip-path="url(#24b4750213)"><path fill="#5271ff" d="M 191.257812 190.949219 L 341.421875 190.949219 L 341.421875 341.117188 L 191.257812 341.117188 Z M 191.257812 190.949219 " fill-opacity="1" fill-rule="nonzero"/></g></g><g clip-path="url(#4cfe001d04)"><g clip-path="url(#00d10d133b)"><path fill="#5271ff" d="M 33.578125 33.601562 L 125.449219 33.601562 L 125.449219 125.476562 L 33.578125 125.476562 Z M 33.578125 33.601562 " fill-opacity="1" fill-rule="nonzero"/></g></g><g clip-path="url(#3ea6331911)"><g clip-path="url(#3e72333e5f)"><g clip-path="url(#60102dfb4a)"><path fill="#ffffff" d="M 104.652344 166.085938 L 166.433594 104.304688 L 228.460938 166.328125 L 166.675781 228.113281 Z M 104.652344 166.085938 " fill-opacity="1" fill-rule="nonzero"/></g></g></g><g clip-path="url(#12a27ee8fc)"><g clip-path="url(#0a396e35ac)"><g clip-path="url(#ac9ea7bc30)"><g clip-path="url(#2a3ab51ef5)"><path stroke-linecap="butt" transform="matrix(0.53033, -0.53033, 0.53033, 0.53033, 104.651642, 166.085864)" fill="none" stroke-linejoin="miter" d="M 7.999738 0.000730232 L 108.497296 0.000730232 C 110.618616 0.000730232 112.651548 0.84042 114.15415 2.343022 C 115.653069 3.841941 116.496442 5.878556 116.496442 7.999876 L 116.496442 108.939375 C 116.496442 111.060696 115.653069 113.097311 114.15415 114.59623 C 112.655231 116.095149 110.618616 116.938521 108.497296 116.938521 L 7.999738 116.938521 C 5.878418 116.938521 3.841803 116.095149 2.342884 114.59623 C 0.840282 113.093628 0.000592193 111.060696 0.000592193 108.939375 L 0.000592193 7.999876 C 0.000592193 5.878556 0.843964 3.841941 2.342884 2.343022 C 3.841803 0.844102 5.878418 0.000730232 7.999738 0.000730232 Z M 7.999738 0.000730232 " stroke="#000000" stroke-width="4" stroke-opacity="1" stroke-miterlimit="4"/></g></g></g></g></svg>