<svg xmlns="http://www.w3.org/2000/svg" xmlns:xlink="http://www.w3.org/1999/xlink" width="1200" zoomAndPan="magnify" viewBox="0 0 900 899.99999" height="1200" preserveAspectRatio="xMidYMid meet" version="1.0"><defs><clipPath id="e05c53cfff"><path d="M 40 40 L 280 40 L 280 280 L 40 280 Z M 40 40 " clip-rule="nonzero"/></clipPath><clipPath id="8a9d094f96"><path d="M 54.25 40 L 265.75 40 C 273.621094 40 280 46.378906 280 54.25 L 280 265.75 C 280 273.621094 273.621094 280 265.75 280 L 54.25 280 C 46.378906 280 40 273.621094 40 265.75 L 40 54.25 C 40 46.378906 46.378906 40 54.25 40 Z M 54.25 40 " clip-rule="nonzero"/></clipPath><clipPath id="feffdbeba9"><path d="M 0 0 L 240 0 L 240 240 L 0 240 Z M 0 0 " clip-rule="nonzero"/></clipPath><clipPath id="f6c9f82e8c"><path d="M 14.25 0 L 225.75 0 C 233.621094 0 240 6.378906 240 14.25 L 240 225.75 C 240 233.621094 233.621094 240 225.75 240 L 14.25 240 C 6.378906 240 0 233.621094 0 225.75 L 0 14.25 C 0 6.378906 6.378906 0 14.25 0 Z M 14.25 0 " clip-rule="nonzero"/></clipPath><clipPath id="93d26cf9b2"><rect x="0" width="240" y="0" height="240"/></clipPath><clipPath id="566985c5b0"><path d="M 310 40 L 861 40 L 861 280 L 310 280 Z M 310 40 " clip-rule="nonzero"/></clipPath><clipPath id="7d56202fd3"><path d="M 324.25 40 L 846.382812 40 C 854.253906 40 860.632812 46.378906 860.632812 54.25 L 860.632812 265.75 C 860.632812 273.621094 854.253906 280 846.382812 280 L 324.25 280 C 316.378906 280 310 273.621094 310 265.75 L 310 54.25 C 310 46.378906 316.378906 40 324.25 40 Z M 324.25 40 " clip-rule="nonzero"/></clipPath><clipPath id="efe9053232"><path d="M 0 0 L 550.640625 0 L 550.640625 240 L 0 240 Z M 0 0 " clip-rule="nonzero"/></clipPath><clipPath id="2c37c8833f"><path d="M 14.25 0 L 536.382812 0 C 544.253906 0 550.632812 6.378906 550.632812 14.25 L 550.632812 225.75 C 550.632812 233.621094 544.253906 240 536.382812 240 L 14.25 240 C 6.378906 240 0 233.621094 0 225.75 L 0 14.25 C 0 6.378906 6.378906 0 14.25 0 Z M 14.25 0 " clip-rule="nonzero"/></clipPath><clipPath id="aac2b7a064"><rect x="0" width="551" y="0" height="240"/></clipPath><clipPath id="57e99eb71e"><path d="M 40 310 L 280 310 L 280 861 L 40 861 Z M 40 310 " clip-rule="nonzero"/></clipPath><clipPath id="defb508980"><path d="M 54.25 310 L 265.75 310 C 273.621094 310 280 316.378906 280 324.25 L 280 846.382812 C 280 854.253906 273.621094 860.632812 265.75 860.632812 L 54.25 860.632812 C 46.378906 860.632812 40 854.253906 40 846.382812 L 40 324.25 C 40 316.378906 46.378906 310 54.25 310 Z M 54.25 310 " clip-rule="nonzero"/></clipPath><clipPath id="eeabc110c9"><path d="M 0 0 L 240 0 L 240 550.640625 L 0 550.640625 Z M 0 0 " clip-rule="nonzero"/></clipPath><clipPath id="de18a82fc9"><path d="M 14.25 0 L 225.75 0 C 233.621094 0 240 6.378906 240 14.25 L 240 536.382812 C 240 544.253906 233.621094 550.632812 225.75 550.632812 L 14.25 550.632812 C 6.378906 550.632812 0 544.253906 0 536.382812 L 0 14.25 C 0 6.378906 6.378906 0 14.25 0 Z M 14.25 0 " clip-rule="nonzero"/></clipPath><clipPath id="ab6e0efd77"><rect x="0" width="240" y="0" height="551"/></clipPath><clipPath id="4f4689ea8e"><path d="M 450 450 L 860.632812 450 L 860.632812 860.632812 L 450 860.632812 Z M 450 450 " clip-rule="nonzero"/></clipPath><clipPath id="cf21455a2b"><path d="M 464.25 450 L 846.382812 450 C 854.253906 450 860.632812 456.378906 860.632812 464.25 L 860.632812 846.382812 C 860.632812 854.253906 854.253906 860.632812 846.382812 860.632812 L 464.25 860.632812 C 456.378906 860.632812 450 854.253906 450 846.382812 L 450 464.25 C 450 456.378906 456.378906 450 464.25 450 Z M 464.25 450 " clip-rule="nonzero"/></clipPath><clipPath id="fe0916fddf"><path d="M 0 0 L 410.632812 0 L 410.632812 410.632812 L 0 410.632812 Z M 0 0 " clip-rule="nonzero"/></clipPath><clipPath id="fb4b8c202d"><path d="M 14.25 0 L 396.382812 0 C 404.253906 0 410.632812 6.378906 410.632812 14.25 L 410.632812 396.382812 C 410.632812 404.253906 404.253906 410.632812 396.382812 410.632812 L 14.25 410.632812 C 6.378906 410.632812 0 404.253906 0 396.382812 L 0 14.25 C 0 6.378906 6.378906 0 14.25 0 Z M 14.25 0 " clip-rule="nonzero"/></clipPath><clipPath id="b4d487259d"><rect x="0" width="411" y="0" height="411"/></clipPath><clipPath id="7917cbdcf9"><path d="M 211 211 L 539 211 L 539 539 L 211 539 Z M 211 211 " clip-rule="nonzero"/></clipPath><clipPath id="a824a0b9e9"><path d="M 375 205.292969 L 544.707031 375 L 375 544.707031 L 205.292969 375 Z M 375 205.292969 " clip-rule="nonzero"/></clipPath><clipPath id="4026a83369"><path d="M 385.078125 215.371094 L 534.628906 364.921875 C 540.195312 370.488281 540.195312 379.511719 534.628906 385.078125 L 385.078125 534.628906 C 379.511719 540.195312 370.488281 540.195312 364.921875 534.628906 L 215.371094 385.078125 C 209.804688 379.511719 209.804688 370.488281 215.371094 364.921875 L 364.921875 215.371094 C 370.488281 209.804688 379.511719 209.804688 385.078125 215.371094 Z M 385.078125 215.371094 " clip-rule="nonzero"/></clipPath><clipPath id="e254c6a165"><path d="M 0 0 L 328 0 L 328 328 L 0 328 Z M 0 0 " clip-rule="nonzero"/></clipPath><clipPath id="e7e029dc49"><path d="M 164 -5.707031 L 333.707031 164 L 164 333.707031 L -5.707031 164 Z M 164 -5.707031 " clip-rule="nonzero"/></clipPath><clipPath id="733e68fa44"><path d="M 174.078125 4.371094 L 323.628906 153.921875 C 329.195312 159.488281 329.195312 168.511719 323.628906 174.078125 L 174.078125 323.628906 C 168.511719 329.195312 159.488281 329.195312 153.921875 323.628906 L 4.371094 174.078125 C -1.195312 168.511719 -1.195312 159.488281 4.371094 153.921875 L 153.921875 4.371094 C 159.488281 -1.195312 168.511719 -1.195312 174.078125 4.371094 Z M 174.078125 4.371094 " clip-rule="nonzero"/></clipPath><clipPath id="1b1e48e178"><rect x="0" width="328" y="0" height="328"/></clipPath><clipPath id="d81cb5b8dd"><path d="M 211 211 L 539 211 L 539 539 L 211 539 Z M 211 211 " clip-rule="nonzero"/></clipPath><clipPath id="c8b7625605"><path d="M 375 205.292969 L 544.707031 375 L 375 544.707031 L 205.292969 375 Z M 375 205.292969 " clip-rule="nonzero"/></clipPath><clipPath id="1ebb29929b"><path d="M 375 205.292969 L 545.035156 375.332031 L 375 545.367188 L 204.964844 375.332031 Z M 375 205.292969 " clip-rule="nonzero"/></clipPath><clipPath id="70027afa3f"><path d="M 385.078125 215.371094 L 534.628906 364.921875 C 540.195312 370.488281 540.195312 379.511719 534.628906 385.078125 L 385.078125 534.628906 C 379.511719 540.195312 370.488281 540.195312 364.921875 534.628906 L 215.371094 385.078125 C 209.804688 379.511719 209.804688 370.488281 215.371094 364.921875 L 364.921875 215.371094 C 370.488281 209.804688 379.511719 209.804688 385.078125 215.371094 Z M 385.078125 215.371094 " clip-rule="nonzero"/></clipPath></defs><rect x="-90" width="1080" fill="#ffffff" y="-89.999999" height="1079.999988" fill-opacity="1"/><rect x="-90" width="1080" fill="#ffffff" y="-89.999999" height="1079.999988" fill-opacity="1"/><g clip-path="url(#e05c53cfff)"><g clip-path="url(#8a9d094f96)"><g transform="matrix(1, 0, 0, 1, 40, 40)"><g clip-path="url(#93d26cf9b2)"><g clip-path="url(#feffdbeba9)"><g clip-path="url(#f6c9f82e8c)"><rect x="-238" width="1296" fill="#6666ff" height="1295.999986" y="-237.999998" fill-opacity="1"/></g></g></g></g></g></g><g clip-path="url(#566985c5b0)"><g clip-path="url(#7d56202fd3)"><g transform="matrix(1, 0, 0, 1, 310, 40)"><g clip-path="url(#aac2b7a064)"><g clip-path="url(#efe9053232)"><g clip-path="url(#2c37c8833f)"><path fill="#666666" d="M 0 0 L 550.3125 0 L 550.3125 240 L 0 240 Z M 0 0 " fill-opacity="1" fill-rule="nonzero"/></g></g></g></g></g></g><g clip-path="url(#57e99eb71e)"><g clip-path="url(#defb508980)"><g transform="matrix(1, 0, 0, 1, 40, 310)"><g clip-path="url(#ab6e0efd77)"><g clip-path="url(#eeabc110c9)"><g clip-path="url(#de18a82fc9)"><path fill="#666666" d="M 0 0 L 240 0 L 240 550.3125 L 0 550.3125 Z M 0 0 " fill-opacity="1" fill-rule="nonzero"/></g></g></g></g></g></g><g clip-path="url(#4f4689ea8e)"><g clip-path="url(#cf21455a2b)"><g transform="matrix(1, 0, 0, 1, 450, 450)"><g clip-path="url(#b4d487259d)"><g clip-path="url(#fe0916fddf)"><g clip-path="url(#fb4b8c202d)"><path fill="#6666ff" d="M 0 0 L 410.632812 0 L 410.632812 410.632812 L 0 410.632812 Z M 0 0 " fill-opacity="1" fill-rule="nonzero"/></g></g></g></g></g></g><g clip-path="url(#7917cbdcf9)"><g clip-path="url(#a824a0b9e9)"><g clip-path="url(#4026a83369)"><g transform="matrix(1, 0, 0, 1, 211, 211)"><g clip-path="url(#1b1e48e178)"><g clip-path="url(#e254c6a165)"><g clip-path="url(#e7e029dc49)"><g clip-path="url(#733e68fa44)"><path fill="#ffffff" d="M 164 -5.707031 L 333.707031 164 L 164 333.707031 L -5.707031 164 Z M 164 -5.707031 " fill-opacity="1" fill-rule="nonzero"/></g></g></g></g></g></g></g></g><g clip-path="url(#d81cb5b8dd)"><g clip-path="url(#c8b7625605)"><g clip-path="url(#1ebb29929b)"><g clip-path="url(#70027afa3f)"><path stroke-linecap="butt" transform="matrix(0.53033, 0.53033, -0.53033, 0.53033, 374.999985, 205.294375)" fill="none" stroke-linejoin="miter" d="M 19.002184 -0.00133967 L 300.997855 -0.00133967 C 311.493972 -0.00133967 320.001351 8.506039 320.001351 19.002156 L 320.001351 300.997827 C 320.001351 311.493944 311.493972 320.001323 300.997855 320.001323 L 19.002184 320.001323 C 8.506067 320.001323 -0.00131171 311.493944 -0.00131171 300.997827 L -0.00131171 19.002156 C -0.00131171 8.506039 8.506067 -0.00133967 19.002184 -0.00133967 Z M 19.002184 -0.00133967 " stroke="#000000" stroke-width="8" stroke-opacity="1" stroke-miterlimit="4"/></g></g></g></g></svg>