<svg xmlns="http://www.w3.org/2000/svg" xmlns:xlink="http://www.w3.org/1999/xlink" width="1200" zoomAndPan="magnify" viewBox="0 0 900 470.999988" height="628" preserveAspectRatio="xMidYMid meet" version="1.0"><defs><g/><clipPath id="68bd27248b"><path d="M 6.65625 100.820312 L 275.90625 100.820312 L 275.90625 370.070312 L 6.65625 370.070312 Z M 6.65625 100.820312 " clip-rule="nonzero"/></clipPath><clipPath id="27ed4697d8"><path d="M 106.589844 124.945312 L 251.9375 124.945312 L 251.9375 197.476562 L 106.589844 197.476562 Z M 106.589844 124.945312 " clip-rule="nonzero"/></clipPath><clipPath id="ed73e46f41"><path d="M 110.898438 124.945312 L 247.488281 124.945312 C 248.628906 124.945312 249.726562 125.398438 250.53125 126.207031 C 251.339844 127.015625 251.796875 128.113281 251.796875 129.253906 L 251.796875 193.167969 C 251.796875 194.3125 251.339844 195.40625 250.53125 196.21875 C 249.726562 197.027344 248.628906 197.476562 247.488281 197.476562 L 110.898438 197.476562 C 109.757812 197.476562 108.660156 197.027344 107.851562 196.21875 C 107.046875 195.40625 106.589844 194.3125 106.589844 193.167969 L 106.589844 129.253906 C 106.589844 128.113281 107.046875 127.015625 107.851562 126.207031 C 108.660156 125.398438 109.757812 124.945312 110.898438 124.945312 Z M 110.898438 124.945312 " clip-rule="nonzero"/></clipPath><clipPath id="376762453f"><path d="M 30.480469 200.277344 L 103.460938 200.277344 L 103.460938 345.957031 L 30.480469 345.957031 Z M 30.480469 200.277344 " clip-rule="nonzero"/></clipPath><clipPath id="e956bb5f86"><path d="M 35.070312 200.558594 L 99.152344 200.558594 C 100.296875 200.558594 101.394531 201.015625 102.203125 201.820312 C 103.007812 202.628906 103.460938 203.726562 103.460938 204.867188 L 103.460938 341.636719 C 103.460938 342.777344 103.007812 343.875 102.203125 344.679688 C 101.394531 345.488281 100.296875 345.945312 99.152344 345.945312 L 35.070312 345.945312 C 33.929688 345.945312 32.832031 345.488281 32.027344 344.679688 C 31.21875 343.875 30.761719 342.777344 30.761719 341.636719 L 30.761719 204.867188 C 30.761719 203.726562 31.21875 202.628906 32.027344 201.820312 C 32.832031 201.015625 33.929688 200.558594 35.070312 200.558594 Z M 35.070312 200.558594 " clip-rule="nonzero"/></clipPath><clipPath id="76045ed01b"><path d="M 143.976562 237.921875 L 251.796875 237.921875 L 251.796875 346 L 143.976562 346 Z M 143.976562 237.921875 " clip-rule="nonzero"/></clipPath><clipPath id="17a4f94a29"><path d="M 148.285156 237.921875 L 247.488281 237.921875 C 248.628906 237.921875 249.726562 238.375 250.53125 239.183594 C 251.339844 239.992188 251.796875 241.085938 251.796875 242.230469 L 251.796875 341.636719 C 251.796875 342.777344 251.339844 343.875 250.53125 344.679688 C 249.726562 345.488281 248.628906 345.945312 247.488281 345.945312 L 148.285156 345.945312 C 147.140625 345.945312 146.046875 345.488281 145.238281 344.679688 C 144.429688 343.875 143.976562 342.777344 143.976562 341.636719 L 143.976562 242.230469 C 143.976562 241.085938 144.429688 239.992188 145.238281 239.183594 C 146.046875 238.375 147.140625 237.921875 148.285156 237.921875 Z M 148.285156 237.921875 " clip-rule="nonzero"/></clipPath><clipPath id="675e4cc583"><path d="M 30.761719 124.945312 L 96.984375 124.945312 L 96.984375 190.910156 L 30.761719 190.910156 Z M 30.761719 124.945312 " clip-rule="nonzero"/></clipPath><clipPath id="143ba255cf"><path d="M 35.070312 124.945312 L 92.527344 124.945312 C 93.667969 124.945312 94.761719 125.398438 95.570312 126.207031 C 96.382812 127.015625 96.832031 128.113281 96.832031 129.253906 L 96.832031 186.605469 C 96.832031 187.746094 96.382812 188.839844 95.570312 189.648438 C 94.761719 190.457031 93.667969 190.910156 92.527344 190.910156 L 35.070312 190.910156 C 33.929688 190.910156 32.832031 190.457031 32.027344 189.648438 C 31.21875 188.839844 30.761719 187.746094 30.761719 186.605469 L 30.761719 129.253906 C 30.761719 128.113281 31.21875 127.015625 32.027344 126.207031 C 32.832031 125.398438 33.929688 124.945312 35.070312 124.945312 Z M 35.070312 124.945312 " clip-rule="nonzero"/></clipPath><clipPath id="18ee243a13"><path d="M 83.480469 177 L 168.921875 177 L 168.921875 263 L 83.480469 263 Z M 83.480469 177 " clip-rule="nonzero"/></clipPath><clipPath id="4a61508ec4"><path d="M 81.792969 220.070312 L 126.152344 175.710938 L 170.6875 220.242188 L 126.328125 264.605469 Z M 81.792969 220.070312 " clip-rule="nonzero"/></clipPath><clipPath id="38a8ca7eb7"><path d="M 84.839844 217.023438 L 123.109375 178.757812 C 123.914062 177.949219 125.011719 177.492188 126.152344 177.492188 C 127.296875 177.492188 128.390625 177.949219 129.199219 178.757812 L 167.636719 217.191406 C 168.445312 218 168.898438 219.097656 168.898438 220.238281 C 168.898438 221.382812 168.445312 222.476562 167.636719 223.285156 L 129.367188 261.554688 C 128.558594 262.359375 127.464844 262.816406 126.320312 262.816406 C 125.179688 262.816406 124.082031 262.359375 123.277344 261.554688 L 84.839844 223.113281 C 84.03125 222.308594 83.578125 221.214844 83.578125 220.070312 C 83.578125 218.925781 84.03125 217.832031 84.839844 217.023438 Z M 84.839844 217.023438 " clip-rule="nonzero"/></clipPath><clipPath id="6e0a3f1cf9"><path d="M 83.480469 177 L 168.921875 177 L 168.921875 263 L 83.480469 263 Z M 83.480469 177 " clip-rule="nonzero"/></clipPath><clipPath id="36d6aef94a"><path d="M 81.792969 220.070312 L 126.34375 175.519531 L 170.894531 220.070312 L 126.34375 264.621094 Z M 81.792969 220.070312 " clip-rule="nonzero"/></clipPath><clipPath id="425bfcc51c"><path d="M 81.792969 220.070312 L 127.035156 174.828125 L 172.277344 220.070312 L 127.035156 265.3125 Z M 81.792969 220.070312 " clip-rule="nonzero"/></clipPath><clipPath id="2c75e3a913"><path d="M 84.839844 217.023438 L 123.109375 178.757812 C 123.914062 177.949219 125.007812 177.492188 126.152344 177.492188 C 127.296875 177.492188 128.390625 177.949219 129.199219 178.757812 L 167.636719 217.191406 C 168.441406 218 168.898438 219.097656 168.898438 220.238281 C 168.898438 221.378906 168.441406 222.476562 167.636719 223.285156 L 129.367188 261.550781 C 128.558594 262.359375 127.464844 262.8125 126.320312 262.8125 C 125.175781 262.8125 124.082031 262.359375 123.277344 261.550781 L 84.839844 223.113281 C 84.03125 222.308594 83.578125 221.210938 83.578125 220.070312 C 83.578125 218.925781 84.03125 217.832031 84.839844 217.023438 Z M 84.839844 217.023438 " clip-rule="nonzero"/></clipPath></defs><rect x="-90" width="1080" fill="#ffffff" y="-47.099999" height="565.199986" fill-opacity="1"/><rect x="-90" width="1080" fill="#ffffff" y="-47.099999" height="565.199986" fill-opacity="1"/><g clip-path="url(#68bd27248b)"><path fill="#ffffff" d="M -20.269531 73.894531 L 302.828125 73.894531 L 302.828125 396.996094 L -20.269531 396.996094 Z M -20.269531 73.894531 " fill-opacity="1" fill-rule="nonzero"/><path fill="#ffffff" d="M -20.269531 73.894531 L 302.828125 73.894531 L 302.828125 396.996094 L -20.269531 396.996094 Z M -20.269531 73.894531 " fill-opacity="1" fill-rule="nonzero"/></g><g clip-path="url(#27ed4697d8)"><g clip-path="url(#ed73e46f41)"><path fill="#737373" d="M 106.589844 124.945312 L 251.65625 124.945312 L 251.65625 197.476562 L 106.589844 197.476562 Z M 106.589844 124.945312 " fill-opacity="1" fill-rule="nonzero"/></g></g><g clip-path="url(#376762453f)"><g clip-path="url(#e956bb5f86)"><path fill="#737373" d="M 30.761719 200.558594 L 103.460938 200.558594 L 103.460938 345.957031 L 30.761719 345.957031 Z M 30.761719 200.558594 " fill-opacity="1" fill-rule="nonzero"/></g></g><g clip-path="url(#76045ed01b)"><g clip-path="url(#17a4f94a29)"><path fill="#5271ff" d="M 143.976562 237.921875 L 251.796875 237.921875 L 251.796875 345.742188 L 143.976562 345.742188 Z M 143.976562 237.921875 " fill-opacity="1" fill-rule="nonzero"/></g></g><g clip-path="url(#675e4cc583)"><g clip-path="url(#143ba255cf)"><path fill="#5271ff" d="M 30.761719 124.945312 L 96.726562 124.945312 L 96.726562 190.910156 L 30.761719 190.910156 Z M 30.761719 124.945312 " fill-opacity="1" fill-rule="nonzero"/></g></g><g clip-path="url(#18ee243a13)"><g clip-path="url(#4a61508ec4)"><g clip-path="url(#38a8ca7eb7)"><path fill="#ffffff" d="M 81.792969 220.070312 L 126.152344 175.710938 L 170.6875 220.242188 L 126.328125 264.605469 Z M 81.792969 220.070312 " fill-opacity="1" fill-rule="nonzero"/></g></g></g><g clip-path="url(#6e0a3f1cf9)"><g clip-path="url(#36d6aef94a)"><g clip-path="url(#425bfcc51c)"><g clip-path="url(#2c75e3a913)"><path stroke-linecap="butt" transform="matrix(0.380777, -0.380777, 0.380777, 0.380777, 81.794231, 220.069029)" fill="none" stroke-linejoin="miter" d="M 7.998391 0.000027908 L 108.497086 0.00515722 C 110.615494 0.000027908 112.651833 0.836106 114.154722 2.338996 C 115.657612 3.841886 116.493691 5.878224 116.493691 8.001761 L 116.49882 108.941578 C 116.493691 111.059985 115.652483 113.101453 114.154722 114.599214 C 112.656962 116.096974 110.615494 116.938182 108.497086 116.943311 L 7.998391 116.938182 C 5.874854 116.938182 3.843645 116.096974 2.340755 114.594084 C 0.837866 113.091195 -0.00334225 111.059985 0.00178707 108.941578 L 0.00178707 7.996632 C -0.00334225 5.878224 0.842995 3.841886 2.340755 2.344125 C 3.843645 0.841236 5.874854 0.000027908 7.998391 0.000027908 Z M 7.998391 0.000027908 " stroke="#000000" stroke-width="4" stroke-opacity="1" stroke-miterlimit="4"/></g></g></g></g><g fill="#000000" fill-opacity="1"><g transform="translate(261.751249, 252.403863)"><g><path d="M 32.765625 -51.34375 L 39.53125 -51.34375 C 45.863281 -51.34375 50.597656 -52.59375 53.734375 -55.09375 C 56.867188 -57.59375 58.4375 -61.226562 58.4375 -66 C 58.4375 -70.820312 57.117188 -74.382812 54.484375 -76.6875 C 51.859375 -78.988281 47.738281 -80.140625 42.125 -80.140625 L 32.765625 -80.140625 Z M 79.203125 -66.734375 C 79.203125 -56.296875 75.941406 -48.3125 69.421875 -42.78125 C 62.898438 -37.257812 53.625 -34.5 41.59375 -34.5 L 32.765625 -34.5 L 32.765625 0 L 12.203125 0 L 12.203125 -96.984375 L 43.1875 -96.984375 C 54.945312 -96.984375 63.890625 -94.453125 70.015625 -89.390625 C 76.140625 -84.328125 79.203125 -76.773438 79.203125 -66.734375 Z M 79.203125 -66.734375 "/></g></g></g><g fill="#000000" fill-opacity="1"><g transform="translate(347.059385, 252.403863)"><g><path d="M 9.75 -93.34375 C 9.75 -99.925781 13.421875 -103.21875 20.765625 -103.21875 C 28.109375 -103.21875 31.78125 -99.925781 31.78125 -93.34375 C 31.78125 -90.195312 30.859375 -87.75 29.015625 -86 C 27.179688 -84.257812 24.429688 -83.390625 20.765625 -83.390625 C 13.421875 -83.390625 9.75 -86.707031 9.75 -93.34375 Z M 30.84375 0 L 10.609375 0 L 10.609375 -74.171875 L 30.84375 -74.171875 Z M 30.84375 0 "/></g></g></g><g fill="#000000" fill-opacity="1"><g transform="translate(388.519404, 252.403863)"><g><path d="M 40.734375 1.328125 C 17.648438 1.328125 6.109375 -11.34375 6.109375 -36.6875 C 6.109375 -49.289062 9.242188 -58.921875 15.515625 -65.578125 C 21.796875 -72.234375 30.796875 -75.5625 42.515625 -75.5625 C 51.097656 -75.5625 58.796875 -73.878906 65.609375 -70.515625 L 59.640625 -54.859375 C 56.453125 -56.140625 53.488281 -57.1875 50.75 -58 C 48.007812 -58.820312 45.265625 -59.234375 42.515625 -59.234375 C 31.992188 -59.234375 26.734375 -51.757812 26.734375 -36.8125 C 26.734375 -22.3125 31.992188 -15.0625 42.515625 -15.0625 C 46.410156 -15.0625 50.015625 -15.578125 53.328125 -16.609375 C 56.648438 -17.648438 59.96875 -19.28125 63.28125 -21.5 L 63.28125 -4.171875 C 60.007812 -2.097656 56.703125 -0.664062 53.359375 0.125 C 50.023438 0.925781 45.816406 1.328125 40.734375 1.328125 Z M 40.734375 1.328125 "/></g></g></g><g fill="#000000" fill-opacity="1"><g transform="translate(458.371245, 252.403863)"><g><path d="M 41.859375 -14.796875 C 45.398438 -14.796875 49.644531 -15.566406 54.59375 -17.109375 L 54.59375 -2.0625 C 49.550781 0.195312 43.359375 1.328125 36.015625 1.328125 C 27.921875 1.328125 22.023438 -0.71875 18.328125 -4.8125 C 14.640625 -8.90625 12.796875 -15.039062 12.796875 -23.21875 L 12.796875 -58.96875 L 3.125 -58.96875 L 3.125 -67.53125 L 14.265625 -74.296875 L 20.09375 -89.953125 L 33.03125 -89.953125 L 33.03125 -74.171875 L 53.796875 -74.171875 L 53.796875 -58.96875 L 33.03125 -58.96875 L 33.03125 -23.21875 C 33.03125 -20.34375 33.835938 -18.21875 35.453125 -16.84375 C 37.066406 -15.476562 39.203125 -14.796875 41.859375 -14.796875 Z M 41.859375 -14.796875 "/></g></g></g><g fill="#000000" fill-opacity="1"><g transform="translate(517.343976, 252.403863)"><g><path d="M 32.765625 -53.9375 L 39.40625 -53.9375 C 45.90625 -53.9375 50.703125 -55.019531 53.796875 -57.1875 C 56.890625 -59.351562 58.4375 -62.757812 58.4375 -67.40625 C 58.4375 -72 56.851562 -75.269531 53.6875 -77.21875 C 50.53125 -79.164062 45.632812 -80.140625 39 -80.140625 L 32.765625 -80.140625 Z M 32.765625 -37.21875 L 32.765625 0 L 12.203125 0 L 12.203125 -96.984375 L 40.46875 -96.984375 C 53.644531 -96.984375 63.394531 -94.582031 69.71875 -89.78125 C 76.039062 -84.988281 79.203125 -77.707031 79.203125 -67.9375 C 79.203125 -62.226562 77.628906 -57.148438 74.484375 -52.703125 C 71.347656 -48.253906 66.90625 -44.769531 61.15625 -42.25 L 89.6875 0 L 66.875 0 L 43.71875 -37.21875 Z M 32.765625 -37.21875 "/></g></g></g><g fill="#000000" fill-opacity="1"><g transform="translate(607.03029, 252.403863)"><g><path d="M 9.75 -93.34375 C 9.75 -99.925781 13.421875 -103.21875 20.765625 -103.21875 C 28.109375 -103.21875 31.78125 -99.925781 31.78125 -93.34375 C 31.78125 -90.195312 30.859375 -87.75 29.015625 -86 C 27.179688 -84.257812 24.429688 -83.390625 20.765625 -83.390625 C 13.421875 -83.390625 9.75 -86.707031 9.75 -93.34375 Z M 30.84375 0 L 10.609375 0 L 10.609375 -74.171875 L 30.84375 -74.171875 Z M 30.84375 0 "/></g></g></g><g fill="#000000" fill-opacity="1"><g transform="translate(648.490309, 252.403863)"><g><path d="M 34.09375 1.328125 C 25.382812 1.328125 18.539062 -2.050781 13.5625 -8.8125 C 8.59375 -15.582031 6.109375 -24.960938 6.109375 -36.953125 C 6.109375 -49.109375 8.640625 -58.582031 13.703125 -65.375 C 18.765625 -72.164062 25.738281 -75.5625 34.625 -75.5625 C 43.957031 -75.5625 51.078125 -71.929688 55.984375 -64.671875 L 56.65625 -64.671875 C 55.632812 -70.203125 55.125 -75.132812 55.125 -79.46875 L 55.125 -103.21875 L 75.421875 -103.21875 L 75.421875 0 L 59.90625 0 L 55.984375 -9.625 L 55.125 -9.625 C 50.53125 -2.320312 43.519531 1.328125 34.09375 1.328125 Z M 41.203125 -14.796875 C 46.367188 -14.796875 50.15625 -16.296875 52.5625 -19.296875 C 54.976562 -22.304688 56.296875 -27.414062 56.515625 -34.625 L 56.515625 -36.8125 C 56.515625 -44.78125 55.285156 -50.488281 52.828125 -53.9375 C 50.378906 -57.382812 46.390625 -59.109375 40.859375 -59.109375 C 36.347656 -59.109375 32.84375 -57.191406 30.34375 -53.359375 C 27.84375 -49.535156 26.59375 -43.976562 26.59375 -36.6875 C 26.59375 -29.382812 27.851562 -23.910156 30.375 -20.265625 C 32.894531 -16.617188 36.503906 -14.796875 41.203125 -14.796875 Z M 41.203125 -14.796875 "/></g></g></g><g fill="#000000" fill-opacity="1"><g transform="translate(734.461805, 252.403863)"><g><path d="M 41.328125 -61.15625 C 37.035156 -61.15625 33.671875 -59.796875 31.234375 -57.078125 C 28.804688 -54.359375 27.414062 -50.5 27.0625 -45.5 L 55.453125 -45.5 C 55.367188 -50.5 54.066406 -54.359375 51.546875 -57.078125 C 49.023438 -59.796875 45.617188 -61.15625 41.328125 -61.15625 Z M 44.1875 1.328125 C 32.238281 1.328125 22.90625 -1.960938 16.1875 -8.546875 C 9.46875 -15.140625 6.109375 -24.472656 6.109375 -36.546875 C 6.109375 -48.972656 9.210938 -58.582031 15.421875 -65.375 C 21.640625 -72.164062 30.234375 -75.5625 41.203125 -75.5625 C 51.679688 -75.5625 59.835938 -72.570312 65.671875 -66.59375 C 71.515625 -60.625 74.4375 -52.378906 74.4375 -41.859375 L 74.4375 -32.046875 L 26.59375 -32.046875 C 26.820312 -26.296875 28.523438 -21.804688 31.703125 -18.578125 C 34.890625 -15.347656 39.359375 -13.734375 45.109375 -13.734375 C 49.578125 -13.734375 53.800781 -14.195312 57.78125 -15.125 C 61.757812 -16.050781 65.914062 -17.53125 70.25 -19.5625 L 70.25 -3.90625 C 66.707031 -2.144531 62.925781 -0.832031 58.90625 0.03125 C 54.882812 0.894531 49.976562 1.328125 44.1875 1.328125 Z M 44.1875 1.328125 "/></g></g></g><g fill="#000000" fill-opacity="1"><g transform="translate(814.728403, 252.403863)"><g><path d="M 52.015625 -75.5625 C 54.753906 -75.5625 57.03125 -75.363281 58.84375 -74.96875 L 57.3125 -55.984375 C 55.675781 -56.429688 53.6875 -56.65625 51.34375 -56.65625 C 44.882812 -56.65625 39.851562 -54.992188 36.25 -51.671875 C 32.644531 -48.359375 30.84375 -43.71875 30.84375 -37.75 L 30.84375 0 L 10.609375 0 L 10.609375 -74.171875 L 25.9375 -74.171875 L 28.921875 -61.6875 L 29.921875 -61.6875 C 32.222656 -65.851562 35.328125 -69.207031 39.234375 -71.75 C 43.148438 -74.289062 47.410156 -75.5625 52.015625 -75.5625 Z M 52.015625 -75.5625 "/></g></g></g><g fill="#000000" fill-opacity="1"><g transform="translate(393.706156, 304.838727)"><g><path d="M 14.078125 -12.796875 C 14.078125 -10.953125 13.441406 -9.535156 12.171875 -8.546875 C 10.910156 -7.554688 9.128906 -7.0625 6.828125 -7.0625 L 4.75 -7.0625 L 4.75 0 L 2.46875 0 L 2.46875 -18.140625 L 7.265625 -18.140625 C 11.804688 -18.140625 14.078125 -16.359375 14.078125 -12.796875 Z M 4.75 -9.015625 L 6.578125 -9.015625 C 8.378906 -9.015625 9.679688 -9.304688 10.484375 -9.890625 C 11.296875 -10.472656 11.703125 -11.410156 11.703125 -12.703125 C 11.703125 -13.867188 11.328125 -14.738281 10.578125 -15.3125 C 9.828125 -15.894531 8.65625 -16.1875 7.0625 -16.1875 L 4.75 -16.1875 Z M 4.75 -9.015625 "/></g></g><g transform="translate(409.07437, 304.838727)"><g><path d="M 10.5625 0 L 10.140625 -1.9375 L 10.03125 -1.9375 C 9.351562 -1.082031 8.675781 -0.503906 8 -0.203125 C 7.332031 0.0976562 6.484375 0.25 5.453125 0.25 C 4.117188 0.25 3.070312 -0.0976562 2.3125 -0.796875 C 1.550781 -1.503906 1.171875 -2.5 1.171875 -3.78125 C 1.171875 -6.539062 3.347656 -7.988281 7.703125 -8.125 L 10.015625 -8.21875 L 10.015625 -9.015625 C 10.015625 -10.046875 9.789062 -10.804688 9.34375 -11.296875 C 8.894531 -11.796875 8.175781 -12.046875 7.1875 -12.046875 C 6.46875 -12.046875 5.785156 -11.9375 5.140625 -11.71875 C 4.503906 -11.507812 3.90625 -11.269531 3.34375 -11 L 2.671875 -12.671875 C 3.359375 -13.035156 4.101562 -13.320312 4.90625 -13.53125 C 5.71875 -13.738281 6.519531 -13.84375 7.3125 -13.84375 C 8.957031 -13.84375 10.179688 -13.476562 10.984375 -12.75 C 11.785156 -12.019531 12.1875 -10.863281 12.1875 -9.28125 L 12.1875 0 Z M 5.96875 -1.546875 C 7.21875 -1.546875 8.195312 -1.882812 8.90625 -2.5625 C 9.625 -3.238281 9.984375 -4.195312 9.984375 -5.4375 L 9.984375 -6.65625 L 7.984375 -6.578125 C 6.410156 -6.515625 5.265625 -6.265625 4.546875 -5.828125 C 3.835938 -5.390625 3.484375 -4.703125 3.484375 -3.765625 C 3.484375 -3.046875 3.695312 -2.492188 4.125 -2.109375 C 4.5625 -1.734375 5.175781 -1.546875 5.96875 -1.546875 Z M 5.96875 -1.546875 "/></g></g><g transform="translate(423.326249, 304.838727)"><g><path d="M 4.390625 0 L 2.15625 0 L 2.15625 -13.625 L 4.390625 -13.625 Z M 1.984375 -17.3125 C 1.984375 -17.800781 2.109375 -18.15625 2.359375 -18.375 C 2.609375 -18.601562 2.921875 -18.71875 3.296875 -18.71875 C 3.648438 -18.71875 3.957031 -18.601562 4.21875 -18.375 C 4.476562 -18.15625 4.609375 -17.800781 4.609375 -17.3125 C 4.609375 -16.820312 4.476562 -16.457031 4.21875 -16.21875 C 3.957031 -15.988281 3.648438 -15.875 3.296875 -15.875 C 2.921875 -15.875 2.609375 -15.988281 2.359375 -16.21875 C 2.109375 -16.457031 1.984375 -16.820312 1.984375 -17.3125 Z M 1.984375 -17.3125 "/></g></g><g transform="translate(429.875415, 304.838727)"><g><path d="M 8.515625 -13.875 C 9.117188 -13.875 9.648438 -13.820312 10.109375 -13.71875 L 9.84375 -11.65625 C 9.332031 -11.769531 8.835938 -11.828125 8.359375 -11.828125 C 7.640625 -11.828125 6.972656 -11.628906 6.359375 -11.234375 C 5.742188 -10.835938 5.257812 -10.289062 4.90625 -9.59375 C 4.5625 -8.894531 4.390625 -8.117188 4.390625 -7.265625 L 4.390625 0 L 2.15625 0 L 2.15625 -13.625 L 4 -13.625 L 4.25 -11.125 L 4.34375 -11.125 C 4.863281 -12.03125 5.476562 -12.710938 6.1875 -13.171875 C 6.894531 -13.640625 7.671875 -13.875 8.515625 -13.875 Z M 8.515625 -13.875 "/></g></g><g transform="translate(440.368965, 304.838727)"><g><path d="M 13.28125 0 L 10.953125 -7.671875 C 10.734375 -8.304688 10.421875 -9.507812 10.015625 -11.28125 L 9.90625 -11.28125 C 9.5625 -9.664062 9.257812 -8.453125 9 -7.640625 L 6.546875 0 L 4.015625 0 L 0.28125 -13.625 L 2.59375 -13.625 C 3.457031 -10.269531 4.113281 -7.71875 4.5625 -5.96875 C 5.007812 -4.226562 5.273438 -3 5.359375 -2.28125 L 5.453125 -2.28125 L 5.625 -3.046875 C 5.882812 -4.234375 6.132812 -5.195312 6.375 -5.9375 L 8.796875 -13.625 L 11.234375 -13.625 L 13.578125 -5.9375 C 13.660156 -5.65625 13.75 -5.347656 13.84375 -5.015625 C 13.9375 -4.691406 14.023438 -4.367188 14.109375 -4.046875 C 14.191406 -3.734375 14.265625 -3.425781 14.328125 -3.125 C 14.390625 -2.820312 14.441406 -2.550781 14.484375 -2.3125 L 14.59375 -2.3125 C 14.664062 -2.9375 14.96875 -4.285156 15.5 -6.359375 L 17.40625 -13.625 L 19.6875 -13.625 L 15.90625 0 Z M 13.28125 0 "/></g></g><g transform="translate(460.338961, 304.838727)"><g><path d="M 4.390625 0 L 2.15625 0 L 2.15625 -13.625 L 4.390625 -13.625 Z M 1.984375 -17.3125 C 1.984375 -17.800781 2.109375 -18.15625 2.359375 -18.375 C 2.609375 -18.601562 2.921875 -18.71875 3.296875 -18.71875 C 3.648438 -18.71875 3.957031 -18.601562 4.21875 -18.375 C 4.476562 -18.15625 4.609375 -17.800781 4.609375 -17.3125 C 4.609375 -16.820312 4.476562 -16.457031 4.21875 -16.21875 C 3.957031 -15.988281 3.648438 -15.875 3.296875 -15.875 C 2.921875 -15.875 2.609375 -15.988281 2.359375 -16.21875 C 2.109375 -16.457031 1.984375 -16.820312 1.984375 -17.3125 Z M 1.984375 -17.3125 "/></g></g><g transform="translate(466.888127, 304.838727)"><g><path d="M 11.03125 -3.765625 C 11.03125 -2.484375 10.550781 -1.492188 9.59375 -0.796875 C 8.644531 -0.0976562 7.3125 0.25 5.59375 0.25 C 3.800781 0.25 2.375 -0.0351562 1.3125 -0.609375 L 1.3125 -2.640625 C 2.8125 -1.910156 4.253906 -1.546875 5.640625 -1.546875 C 6.765625 -1.546875 7.582031 -1.726562 8.09375 -2.09375 C 8.613281 -2.457031 8.875 -2.945312 8.875 -3.5625 C 8.875 -4.09375 8.625 -4.546875 8.125 -4.921875 C 7.632812 -5.296875 6.765625 -5.722656 5.515625 -6.203125 C 4.222656 -6.703125 3.316406 -7.125 2.796875 -7.46875 C 2.273438 -7.820312 1.894531 -8.21875 1.65625 -8.65625 C 1.414062 -9.09375 1.296875 -9.628906 1.296875 -10.265625 C 1.296875 -11.378906 1.75 -12.257812 2.65625 -12.90625 C 3.5625 -13.550781 4.8125 -13.875 6.40625 -13.875 C 7.945312 -13.875 9.394531 -13.566406 10.75 -12.953125 L 9.984375 -11.171875 C 8.609375 -11.753906 7.363281 -12.046875 6.25 -12.046875 C 5.320312 -12.046875 4.617188 -11.898438 4.140625 -11.609375 C 3.660156 -11.316406 3.421875 -10.910156 3.421875 -10.390625 C 3.421875 -9.898438 3.628906 -9.488281 4.046875 -9.15625 C 4.460938 -8.832031 5.425781 -8.378906 6.9375 -7.796875 C 8.070312 -7.378906 8.910156 -6.988281 9.453125 -6.625 C 9.992188 -6.257812 10.390625 -5.847656 10.640625 -5.390625 C 10.898438 -4.941406 11.03125 -4.398438 11.03125 -3.765625 Z M 11.03125 -3.765625 "/></g></g><g transform="translate(479.05618, 304.838727)"><g><path d="M 7.953125 0.25 C 5.910156 0.25 4.304688 -0.367188 3.140625 -1.609375 C 1.984375 -2.847656 1.40625 -4.550781 1.40625 -6.71875 C 1.40625 -8.894531 1.945312 -10.628906 3.03125 -11.921875 C 4.113281 -13.222656 5.578125 -13.875 7.421875 -13.875 C 9.128906 -13.875 10.488281 -13.320312 11.5 -12.21875 C 12.519531 -11.113281 13.03125 -9.617188 13.03125 -7.734375 L 13.03125 -6.375 L 3.703125 -6.375 C 3.742188 -4.832031 4.132812 -3.660156 4.875 -2.859375 C 5.625 -2.054688 6.679688 -1.65625 8.046875 -1.65625 C 8.773438 -1.65625 9.46875 -1.71875 10.125 -1.84375 C 10.78125 -1.96875 11.546875 -2.21875 12.421875 -2.59375 L 12.421875 -0.625 C 11.660156 -0.3125 10.945312 -0.0859375 10.28125 0.046875 C 9.625 0.179688 8.847656 0.25 7.953125 0.25 Z M 7.390625 -12.046875 C 6.328125 -12.046875 5.484375 -11.703125 4.859375 -11.015625 C 4.242188 -10.328125 3.878906 -9.375 3.765625 -8.15625 L 10.6875 -8.15625 C 10.675781 -9.425781 10.382812 -10.390625 9.8125 -11.046875 C 9.238281 -11.710938 8.429688 -12.046875 7.390625 -12.046875 Z M 7.390625 -12.046875 "/></g></g><g transform="translate(493.382481, 304.838727)"><g/></g><g transform="translate(499.981262, 304.838727)"><g><path d="M 8.21875 0 L 5.921875 0 L 5.921875 -16.125 L 0.25 -16.125 L 0.25 -18.140625 L 13.84375 -18.140625 L 13.84375 -16.125 L 8.21875 -16.125 Z M 8.21875 0 "/></g></g></g><g fill="#000000" fill-opacity="1"><g transform="translate(513.240843, 304.838727)"><g><path d="M 7.953125 0.25 C 5.910156 0.25 4.304688 -0.367188 3.140625 -1.609375 C 1.984375 -2.847656 1.40625 -4.550781 1.40625 -6.71875 C 1.40625 -8.894531 1.945312 -10.628906 3.03125 -11.921875 C 4.113281 -13.222656 5.578125 -13.875 7.421875 -13.875 C 9.128906 -13.875 10.488281 -13.320312 11.5 -12.21875 C 12.519531 -11.113281 13.03125 -9.617188 13.03125 -7.734375 L 13.03125 -6.375 L 3.703125 -6.375 C 3.742188 -4.832031 4.132812 -3.660156 4.875 -2.859375 C 5.625 -2.054688 6.679688 -1.65625 8.046875 -1.65625 C 8.773438 -1.65625 9.46875 -1.71875 10.125 -1.84375 C 10.78125 -1.96875 11.546875 -2.21875 12.421875 -2.59375 L 12.421875 -0.625 C 11.660156 -0.3125 10.945312 -0.0859375 10.28125 0.046875 C 9.625 0.179688 8.847656 0.25 7.953125 0.25 Z M 7.390625 -12.046875 C 6.328125 -12.046875 5.484375 -11.703125 4.859375 -11.015625 C 4.242188 -10.328125 3.878906 -9.375 3.765625 -8.15625 L 10.6875 -8.15625 C 10.675781 -9.425781 10.382812 -10.390625 9.8125 -11.046875 C 9.238281 -11.710938 8.429688 -12.046875 7.390625 -12.046875 Z M 7.390625 -12.046875 "/></g></g><g transform="translate(527.567143, 304.838727)"><g><path d="M 11.03125 -3.765625 C 11.03125 -2.484375 10.550781 -1.492188 9.59375 -0.796875 C 8.644531 -0.0976562 7.3125 0.25 5.59375 0.25 C 3.800781 0.25 2.375 -0.0351562 1.3125 -0.609375 L 1.3125 -2.640625 C 2.8125 -1.910156 4.253906 -1.546875 5.640625 -1.546875 C 6.765625 -1.546875 7.582031 -1.726562 8.09375 -2.09375 C 8.613281 -2.457031 8.875 -2.945312 8.875 -3.5625 C 8.875 -4.09375 8.625 -4.546875 8.125 -4.921875 C 7.632812 -5.296875 6.765625 -5.722656 5.515625 -6.203125 C 4.222656 -6.703125 3.316406 -7.125 2.796875 -7.46875 C 2.273438 -7.820312 1.894531 -8.21875 1.65625 -8.65625 C 1.414062 -9.09375 1.296875 -9.628906 1.296875 -10.265625 C 1.296875 -11.378906 1.75 -12.257812 2.65625 -12.90625 C 3.5625 -13.550781 4.8125 -13.875 6.40625 -13.875 C 7.945312 -13.875 9.394531 -13.566406 10.75 -12.953125 L 9.984375 -11.171875 C 8.609375 -11.753906 7.363281 -12.046875 6.25 -12.046875 C 5.320312 -12.046875 4.617188 -11.898438 4.140625 -11.609375 C 3.660156 -11.316406 3.421875 -10.910156 3.421875 -10.390625 C 3.421875 -9.898438 3.628906 -9.488281 4.046875 -9.15625 C 4.460938 -8.832031 5.425781 -8.378906 6.9375 -7.796875 C 8.070312 -7.378906 8.910156 -6.988281 9.453125 -6.625 C 9.992188 -6.257812 10.390625 -5.847656 10.640625 -5.390625 C 10.898438 -4.941406 11.03125 -4.398438 11.03125 -3.765625 Z M 11.03125 -3.765625 "/></g></g><g transform="translate(539.735197, 304.838727)"><g><path d="M 6.71875 -1.578125 C 7 -1.578125 7.332031 -1.601562 7.71875 -1.65625 C 8.113281 -1.71875 8.410156 -1.785156 8.609375 -1.859375 L 8.609375 -0.15625 C 8.398438 -0.0625 8.078125 0.0234375 7.640625 0.109375 C 7.210938 0.203125 6.773438 0.25 6.328125 0.25 C 3.660156 0.25 2.328125 -1.148438 2.328125 -3.953125 L 2.328125 -11.890625 L 0.40625 -11.890625 L 0.40625 -12.953125 L 2.359375 -13.84375 L 3.25 -16.75 L 4.578125 -16.75 L 4.578125 -13.625 L 8.515625 -13.625 L 8.515625 -11.890625 L 4.578125 -11.890625 L 4.578125 -4.015625 C 4.578125 -3.234375 4.765625 -2.628906 5.140625 -2.203125 C 5.515625 -1.785156 6.039062 -1.578125 6.71875 -1.578125 Z M 6.71875 -1.578125 "/></g></g><g transform="translate(548.901548, 304.838727)"><g><path d="M 4.390625 0 L 2.15625 0 L 2.15625 -13.625 L 4.390625 -13.625 Z M 1.984375 -17.3125 C 1.984375 -17.800781 2.109375 -18.15625 2.359375 -18.375 C 2.609375 -18.601562 2.921875 -18.71875 3.296875 -18.71875 C 3.648438 -18.71875 3.957031 -18.601562 4.21875 -18.375 C 4.476562 -18.15625 4.609375 -17.800781 4.609375 -17.3125 C 4.609375 -16.820312 4.476562 -16.457031 4.21875 -16.21875 C 3.957031 -15.988281 3.648438 -15.875 3.296875 -15.875 C 2.921875 -15.875 2.609375 -15.988281 2.359375 -16.21875 C 2.109375 -16.457031 1.984375 -16.820312 1.984375 -17.3125 Z M 1.984375 -17.3125 "/></g></g><g transform="translate(555.450715, 304.838727)"><g><path d="M 11.4375 0 L 11.4375 -8.703125 C 11.4375 -9.816406 11.191406 -10.644531 10.703125 -11.1875 C 10.210938 -11.726562 9.441406 -12 8.390625 -12 C 6.992188 -12 5.976562 -11.609375 5.34375 -10.828125 C 4.707031 -10.054688 4.390625 -8.800781 4.390625 -7.0625 L 4.390625 0 L 2.15625 0 L 2.15625 -13.625 L 3.953125 -13.625 L 4.296875 -11.765625 L 4.421875 -11.765625 C 4.835938 -12.429688 5.425781 -12.945312 6.1875 -13.3125 C 6.945312 -13.6875 7.785156 -13.875 8.703125 -13.875 C 10.378906 -13.875 11.617188 -13.46875 12.421875 -12.65625 C 13.234375 -11.84375 13.640625 -10.582031 13.640625 -8.875 L 13.640625 0 Z M 11.4375 0 "/></g></g><g transform="translate(571.153829, 304.838727)"><g><path d="M 7.34375 -1.578125 C 8.71875 -1.578125 9.71875 -1.945312 10.34375 -2.6875 C 10.96875 -3.425781 11.28125 -4.613281 11.28125 -6.25 L 11.28125 -6.78125 C 11.28125 -8.601562 10.960938 -9.925781 10.328125 -10.75 C 9.703125 -11.582031 8.691406 -12 7.296875 -12 C 6.148438 -12 5.265625 -11.546875 4.640625 -10.640625 C 4.015625 -9.734375 3.703125 -8.441406 3.703125 -6.765625 C 3.703125 -5.078125 4.003906 -3.789062 4.609375 -2.90625 C 5.222656 -2.019531 6.132812 -1.578125 7.34375 -1.578125 Z M 11.25 -0.125 L 11.328125 -1.796875 L 11.234375 -1.796875 C 10.304688 -0.429688 8.898438 0.25 7.015625 0.25 C 5.242188 0.25 3.863281 -0.363281 2.875 -1.59375 C 1.894531 -2.820312 1.40625 -4.550781 1.40625 -6.78125 C 1.40625 -8.976562 1.898438 -10.707031 2.890625 -11.96875 C 3.890625 -13.238281 5.253906 -13.875 6.984375 -13.875 C 8.828125 -13.875 10.25 -13.1875 11.25 -11.8125 L 11.390625 -11.8125 L 11.6875 -13.625 L 13.453125 -13.625 L 13.453125 0.21875 C 13.453125 2.175781 12.957031 3.644531 11.96875 4.625 C 10.988281 5.613281 9.457031 6.109375 7.375 6.109375 C 5.382812 6.109375 3.75 5.816406 2.46875 5.234375 L 2.46875 3.171875 C 3.789062 3.890625 5.46875 4.25 7.5 4.25 C 8.65625 4.25 9.566406 3.90625 10.234375 3.21875 C 10.910156 2.539062 11.25 1.601562 11.25 0.40625 Z M 11.25 -0.125 "/></g></g><g transform="translate(586.782521, 304.838727)"><g/></g><g transform="translate(593.381302, 304.838727)"><g><path d="M 14 -6.828125 C 14 -4.609375 13.4375 -2.875 12.3125 -1.625 C 11.1875 -0.375 9.628906 0.25 7.640625 0.25 C 6.410156 0.25 5.316406 -0.0351562 4.359375 -0.609375 C 3.410156 -1.179688 2.679688 -2.003906 2.171875 -3.078125 C 1.660156 -4.160156 1.40625 -5.410156 1.40625 -6.828125 C 1.40625 -9.046875 1.957031 -10.773438 3.0625 -12.015625 C 4.164062 -13.253906 5.722656 -13.875 7.734375 -13.875 C 9.648438 -13.875 11.171875 -13.238281 12.296875 -11.96875 C 13.429688 -10.707031 14 -8.992188 14 -6.828125 Z M 3.703125 -6.828125 C 3.703125 -5.117188 4.039062 -3.816406 4.71875 -2.921875 C 5.394531 -2.035156 6.390625 -1.59375 7.703125 -1.59375 C 9.003906 -1.59375 9.992188 -2.035156 10.671875 -2.921875 C 11.347656 -3.816406 11.6875 -5.117188 11.6875 -6.828125 C 11.6875 -8.546875 11.34375 -9.835938 10.65625 -10.703125 C 9.976562 -11.566406 8.984375 -12 7.671875 -12 C 5.023438 -12 3.703125 -10.273438 3.703125 -6.828125 Z M 3.703125 -6.828125 "/></g></g><g transform="translate(608.749516, 304.838727)"><g><path d="M 11.4375 0 L 11.4375 -8.703125 C 11.4375 -9.816406 11.191406 -10.644531 10.703125 -11.1875 C 10.210938 -11.726562 9.441406 -12 8.390625 -12 C 6.992188 -12 5.976562 -11.609375 5.34375 -10.828125 C 4.707031 -10.054688 4.390625 -8.800781 4.390625 -7.0625 L 4.390625 0 L 2.15625 0 L 2.15625 -13.625 L 3.953125 -13.625 L 4.296875 -11.765625 L 4.421875 -11.765625 C 4.835938 -12.429688 5.425781 -12.945312 6.1875 -13.3125 C 6.945312 -13.6875 7.785156 -13.875 8.703125 -13.875 C 10.378906 -13.875 11.617188 -13.46875 12.421875 -12.65625 C 13.234375 -11.84375 13.640625 -10.582031 13.640625 -8.875 L 13.640625 0 Z M 11.4375 0 "/></g></g><g transform="translate(624.45263, 304.838727)"><g/></g><g transform="translate(631.051411, 304.838727)"><g><path d="M 6.71875 -1.578125 C 7 -1.578125 7.332031 -1.601562 7.71875 -1.65625 C 8.113281 -1.71875 8.410156 -1.785156 8.609375 -1.859375 L 8.609375 -0.15625 C 8.398438 -0.0625 8.078125 0.0234375 7.640625 0.109375 C 7.210938 0.203125 6.773438 0.25 6.328125 0.25 C 3.660156 0.25 2.328125 -1.148438 2.328125 -3.953125 L 2.328125 -11.890625 L 0.40625 -11.890625 L 0.40625 -12.953125 L 2.359375 -13.84375 L 3.25 -16.75 L 4.578125 -16.75 L 4.578125 -13.625 L 8.515625 -13.625 L 8.515625 -11.890625 L 4.578125 -11.890625 L 4.578125 -4.015625 C 4.578125 -3.234375 4.765625 -2.628906 5.140625 -2.203125 C 5.515625 -1.785156 6.039062 -1.578125 6.71875 -1.578125 Z M 6.71875 -1.578125 "/></g></g><g transform="translate(640.217763, 304.838727)"><g><path d="M 11.4375 0 L 11.4375 -8.703125 C 11.4375 -9.816406 11.191406 -10.644531 10.703125 -11.1875 C 10.210938 -11.726562 9.441406 -12 8.390625 -12 C 7.003906 -12 5.988281 -11.613281 5.34375 -10.84375 C 4.707031 -10.070312 4.390625 -8.800781 4.390625 -7.03125 L 4.390625 0 L 2.15625 0 L 2.15625 -19.296875 L 4.390625 -19.296875 L 4.390625 -13.640625 C 4.390625 -12.898438 4.347656 -12.265625 4.265625 -11.734375 L 4.421875 -11.734375 C 4.828125 -12.398438 5.398438 -12.914062 6.140625 -13.28125 C 6.878906 -13.65625 7.71875 -13.84375 8.65625 -13.84375 C 10.3125 -13.84375 11.554688 -13.445312 12.390625 -12.65625 C 13.222656 -11.863281 13.640625 -10.601562 13.640625 -8.875 L 13.640625 0 Z M 11.4375 0 "/></g></g><g transform="translate(655.920877, 304.838727)"><g><path d="M 7.953125 0.25 C 5.910156 0.25 4.304688 -0.367188 3.140625 -1.609375 C 1.984375 -2.847656 1.40625 -4.550781 1.40625 -6.71875 C 1.40625 -8.894531 1.945312 -10.628906 3.03125 -11.921875 C 4.113281 -13.222656 5.578125 -13.875 7.421875 -13.875 C 9.128906 -13.875 10.488281 -13.320312 11.5 -12.21875 C 12.519531 -11.113281 13.03125 -9.617188 13.03125 -7.734375 L 13.03125 -6.375 L 3.703125 -6.375 C 3.742188 -4.832031 4.132812 -3.660156 4.875 -2.859375 C 5.625 -2.054688 6.679688 -1.65625 8.046875 -1.65625 C 8.773438 -1.65625 9.46875 -1.71875 10.125 -1.84375 C 10.78125 -1.96875 11.546875 -2.21875 12.421875 -2.59375 L 12.421875 -0.625 C 11.660156 -0.3125 10.945312 -0.0859375 10.28125 0.046875 C 9.625 0.179688 8.847656 0.25 7.953125 0.25 Z M 7.390625 -12.046875 C 6.328125 -12.046875 5.484375 -11.703125 4.859375 -11.015625 C 4.242188 -10.328125 3.878906 -9.375 3.765625 -8.15625 L 10.6875 -8.15625 C 10.675781 -9.425781 10.382812 -10.390625 9.8125 -11.046875 C 9.238281 -11.710938 8.429688 -12.046875 7.390625 -12.046875 Z M 7.390625 -12.046875 "/></g></g><g transform="translate(670.247178, 304.838727)"><g/></g><g transform="translate(676.845959, 304.838727)"><g><path d="M 18.46875 0 L 16.171875 0 L 12.625 -11.890625 C 12.101562 -13.660156 11.796875 -14.851562 11.703125 -15.46875 C 11.578125 -14.519531 11.289062 -13.300781 10.84375 -11.8125 L 7.421875 0 L 5.109375 0 L 0.3125 -18.140625 L 2.6875 -18.140625 L 5.515625 -7.0625 C 5.890625 -5.613281 6.175781 -4.171875 6.375 -2.734375 C 6.5625 -4.097656 6.882812 -5.582031 7.34375 -7.1875 L 10.546875 -18.140625 L 12.90625 -18.140625 L 16.234375 -7.109375 C 16.671875 -5.679688 17.003906 -4.222656 17.234375 -2.734375 C 17.359375 -3.878906 17.648438 -5.328125 18.109375 -7.078125 L 20.921875 -18.140625 L 23.296875 -18.140625 Z M 18.46875 0 "/></g></g></g><g fill="#000000" fill-opacity="1"><g transform="translate(700.226983, 304.838727)"><g><path d="M 7.953125 0.25 C 5.910156 0.25 4.304688 -0.367188 3.140625 -1.609375 C 1.984375 -2.847656 1.40625 -4.550781 1.40625 -6.71875 C 1.40625 -8.894531 1.945312 -10.628906 3.03125 -11.921875 C 4.113281 -13.222656 5.578125 -13.875 7.421875 -13.875 C 9.128906 -13.875 10.488281 -13.320312 11.5 -12.21875 C 12.519531 -11.113281 13.03125 -9.617188 13.03125 -7.734375 L 13.03125 -6.375 L 3.703125 -6.375 C 3.742188 -4.832031 4.132812 -3.660156 4.875 -2.859375 C 5.625 -2.054688 6.679688 -1.65625 8.046875 -1.65625 C 8.773438 -1.65625 9.46875 -1.71875 10.125 -1.84375 C 10.78125 -1.96875 11.546875 -2.21875 12.421875 -2.59375 L 12.421875 -0.625 C 11.660156 -0.3125 10.945312 -0.0859375 10.28125 0.046875 C 9.625 0.179688 8.847656 0.25 7.953125 0.25 Z M 7.390625 -12.046875 C 6.328125 -12.046875 5.484375 -11.703125 4.859375 -11.015625 C 4.242188 -10.328125 3.878906 -9.375 3.765625 -8.15625 L 10.6875 -8.15625 C 10.675781 -9.425781 10.382812 -10.390625 9.8125 -11.046875 C 9.238281 -11.710938 8.429688 -12.046875 7.390625 -12.046875 Z M 7.390625 -12.046875 "/></g></g><g transform="translate(714.553284, 304.838727)"><g><path d="M 8.609375 -13.84375 C 10.398438 -13.84375 11.785156 -13.222656 12.765625 -11.984375 C 13.742188 -10.753906 14.234375 -9.03125 14.234375 -6.8125 C 14.234375 -4.5625 13.734375 -2.820312 12.734375 -1.59375 C 11.742188 -0.363281 10.367188 0.25 8.609375 0.25 C 7.691406 0.25 6.875 0.0820312 6.15625 -0.25 C 5.4375 -0.582031 4.847656 -1.070312 4.390625 -1.71875 L 4.21875 -1.71875 C 3.957031 -0.726562 3.804688 -0.15625 3.765625 0 L 2.15625 0 L 2.15625 -19.296875 L 4.390625 -19.296875 L 4.390625 -14.609375 C 4.390625 -13.679688 4.347656 -12.75 4.265625 -11.8125 L 4.390625 -11.8125 C 5.304688 -13.164062 6.710938 -13.84375 8.609375 -13.84375 Z M 8.234375 -12 C 6.859375 -12 5.875 -11.609375 5.28125 -10.828125 C 4.6875 -10.046875 4.390625 -8.734375 4.390625 -6.890625 L 4.390625 -6.78125 C 4.390625 -4.925781 4.691406 -3.597656 5.296875 -2.796875 C 5.910156 -1.992188 6.90625 -1.59375 8.28125 -1.59375 C 9.507812 -1.59375 10.421875 -2.039062 11.015625 -2.9375 C 11.617188 -3.84375 11.921875 -5.140625 11.921875 -6.828125 C 11.921875 -8.554688 11.617188 -9.847656 11.015625 -10.703125 C 10.410156 -11.566406 9.484375 -12 8.234375 -12 Z M 8.234375 -12 "/></g></g></g></svg>