<svg xmlns="http://www.w3.org/2000/svg" xmlns:xlink="http://www.w3.org/1999/xlink" width="1200" zoomAndPan="magnify" viewBox="0 0 900 470.999988" height="628" preserveAspectRatio="xMidYMid meet" version="1.0"><defs><g/><clipPath id="f23cbc0542"><path d="M 1.125 1.0625 L 67.476562 1.0625 L 67.476562 67.414062 L 1.125 67.414062 Z M 1.125 1.0625 " clip-rule="nonzero"/></clipPath><clipPath id="95387bf1fa"><path d="M 8.625 1.0625 L 59.976562 1.0625 C 61.964844 1.0625 63.871094 1.851562 65.28125 3.257812 C 66.6875 4.664062 67.476562 6.574219 67.476562 8.5625 L 67.476562 59.914062 C 67.476562 61.902344 66.6875 63.808594 65.28125 65.21875 C 63.871094 66.625 61.964844 67.414062 59.976562 67.414062 L 8.625 67.414062 C 6.636719 67.414062 4.726562 66.625 3.320312 65.21875 C 1.914062 63.808594 1.125 61.902344 1.125 59.914062 L 1.125 8.5625 C 1.125 6.574219 1.914062 4.664062 3.320312 3.257812 C 4.726562 1.851562 6.636719 1.0625 8.625 1.0625 Z M 8.625 1.0625 " clip-rule="nonzero"/></clipPath><clipPath id="65a09eb9e3"><path d="M 0.125 0.0625 L 66.476562 0.0625 L 66.476562 66.414062 L 0.125 66.414062 Z M 0.125 0.0625 " clip-rule="nonzero"/></clipPath><clipPath id="3fe38e295d"><path d="M 7.625 0.0625 L 58.976562 0.0625 C 60.964844 0.0625 62.871094 0.851562 64.28125 2.257812 C 65.6875 3.664062 66.476562 5.574219 66.476562 7.5625 L 66.476562 58.914062 C 66.476562 60.902344 65.6875 62.808594 64.28125 64.21875 C 62.871094 65.625 60.964844 66.414062 58.976562 66.414062 L 7.625 66.414062 C 5.636719 66.414062 3.726562 65.625 2.320312 64.21875 C 0.914062 62.808594 0.125 60.902344 0.125 58.914062 L 0.125 7.5625 C 0.125 5.574219 0.914062 3.664062 2.320312 2.257812 C 3.726562 0.851562 5.636719 0.0625 7.625 0.0625 Z M 7.625 0.0625 " clip-rule="nonzero"/></clipPath><clipPath id="c4689cf39a"><rect x="0" width="67" y="0" height="67"/></clipPath><clipPath id="d3183b286f"><path d="M 75.769531 1.0625 L 228 1.0625 L 228 67.414062 L 75.769531 67.414062 Z M 75.769531 1.0625 " clip-rule="nonzero"/></clipPath><clipPath id="3feabcaa52"><path d="M 83.269531 1.0625 L 220.5 1.0625 C 222.488281 1.0625 224.398438 1.851562 225.804688 3.257812 C 227.210938 4.664062 228 6.574219 228 8.5625 L 228 59.914062 C 228 61.902344 227.210938 63.808594 225.804688 65.21875 C 224.398438 66.625 222.488281 67.414062 220.5 67.414062 L 83.269531 67.414062 C 81.28125 67.414062 79.375 66.625 77.964844 65.21875 C 76.558594 63.808594 75.769531 61.902344 75.769531 59.914062 L 75.769531 8.5625 C 75.769531 6.574219 76.558594 4.664062 77.964844 3.257812 C 79.375 1.851562 81.28125 1.0625 83.269531 1.0625 Z M 83.269531 1.0625 " clip-rule="nonzero"/></clipPath><clipPath id="70fdaefd3b"><path d="M 0.769531 0.0625 L 153 0.0625 L 153 66.414062 L 0.769531 66.414062 Z M 0.769531 0.0625 " clip-rule="nonzero"/></clipPath><clipPath id="93bab5d267"><path d="M 8.269531 0.0625 L 145.5 0.0625 C 147.488281 0.0625 149.398438 0.851562 150.804688 2.257812 C 152.210938 3.664062 153 5.574219 153 7.5625 L 153 58.914062 C 153 60.902344 152.210938 62.808594 150.804688 64.21875 C 149.398438 65.625 147.488281 66.414062 145.5 66.414062 L 8.269531 66.414062 C 6.28125 66.414062 4.375 65.625 2.964844 64.21875 C 1.558594 62.808594 0.769531 60.902344 0.769531 58.914062 L 0.769531 7.5625 C 0.769531 5.574219 1.558594 3.664062 2.964844 2.257812 C 4.375 0.851562 6.28125 0.0625 8.269531 0.0625 Z M 8.269531 0.0625 " clip-rule="nonzero"/></clipPath><clipPath id="f135a0ee6e"><rect x="0" width="153" y="0" height="67"/></clipPath><clipPath id="81b92029a1"><path d="M 1.125 75.707031 L 67.476562 75.707031 L 67.476562 228 L 1.125 228 Z M 1.125 75.707031 " clip-rule="nonzero"/></clipPath><clipPath id="cc810787c0"><path d="M 8.625 75.707031 L 59.976562 75.707031 C 61.964844 75.707031 63.871094 76.496094 65.28125 77.902344 C 66.6875 79.3125 67.476562 81.21875 67.476562 83.207031 L 67.476562 220.4375 C 67.476562 222.425781 66.6875 224.335938 65.28125 225.742188 C 63.871094 227.148438 61.964844 227.9375 59.976562 227.9375 L 8.625 227.9375 C 6.636719 227.9375 4.726562 227.148438 3.320312 225.742188 C 1.914062 224.335938 1.125 222.425781 1.125 220.4375 L 1.125 83.207031 C 1.125 81.21875 1.914062 79.3125 3.320312 77.902344 C 4.726562 76.496094 6.636719 75.707031 8.625 75.707031 Z M 8.625 75.707031 " clip-rule="nonzero"/></clipPath><clipPath id="f325094520"><path d="M 0.125 0.707031 L 66.476562 0.707031 L 66.476562 152.960938 L 0.125 152.960938 Z M 0.125 0.707031 " clip-rule="nonzero"/></clipPath><clipPath id="c1ce4ff424"><path d="M 7.625 0.707031 L 58.976562 0.707031 C 60.964844 0.707031 62.871094 1.496094 64.28125 2.902344 C 65.6875 4.3125 66.476562 6.21875 66.476562 8.207031 L 66.476562 145.4375 C 66.476562 147.425781 65.6875 149.335938 64.28125 150.742188 C 62.871094 152.148438 60.964844 152.9375 58.976562 152.9375 L 7.625 152.9375 C 5.636719 152.9375 3.726562 152.148438 2.320312 150.742188 C 0.914062 149.335938 0.125 147.425781 0.125 145.4375 L 0.125 8.207031 C 0.125 6.21875 0.914062 4.3125 2.320312 2.902344 C 3.726562 1.496094 5.636719 0.707031 7.625 0.707031 Z M 7.625 0.707031 " clip-rule="nonzero"/></clipPath><clipPath id="231cc20b3c"><rect x="0" width="67" y="0" height="153"/></clipPath><clipPath id="e05de8c589"><path d="M 114.476562 114.414062 L 228 114.414062 L 228 227.9375 L 114.476562 227.9375 Z M 114.476562 114.414062 " clip-rule="nonzero"/></clipPath><clipPath id="1255cee61d"><path d="M 121.976562 114.414062 L 220.5 114.414062 C 222.488281 114.414062 224.398438 115.203125 225.804688 116.609375 C 227.210938 118.015625 228 119.921875 228 121.914062 L 228 220.4375 C 228 222.425781 227.210938 224.335938 225.804688 225.742188 C 224.398438 227.148438 222.488281 227.9375 220.5 227.9375 L 121.976562 227.9375 C 119.984375 227.9375 118.078125 227.148438 116.671875 225.742188 C 115.265625 224.335938 114.476562 222.425781 114.476562 220.4375 L 114.476562 121.914062 C 114.476562 119.921875 115.265625 118.015625 116.671875 116.609375 C 118.078125 115.203125 119.984375 114.414062 121.976562 114.414062 Z M 121.976562 114.414062 " clip-rule="nonzero"/></clipPath><clipPath id="2481073da1"><path d="M 0.476562 0.414062 L 114 0.414062 L 114 113.9375 L 0.476562 113.9375 Z M 0.476562 0.414062 " clip-rule="nonzero"/></clipPath><clipPath id="0bf00032f8"><path d="M 7.976562 0.414062 L 106.5 0.414062 C 108.488281 0.414062 110.398438 1.203125 111.804688 2.609375 C 113.210938 4.015625 114 5.921875 114 7.914062 L 114 106.4375 C 114 108.425781 113.210938 110.335938 111.804688 111.742188 C 110.398438 113.148438 108.488281 113.9375 106.5 113.9375 L 7.976562 113.9375 C 5.984375 113.9375 4.078125 113.148438 2.671875 111.742188 C 1.265625 110.335938 0.476562 108.425781 0.476562 106.4375 L 0.476562 7.914062 C 0.476562 5.921875 1.265625 4.015625 2.671875 2.609375 C 4.078125 1.203125 5.984375 0.414062 7.976562 0.414062 Z M 7.976562 0.414062 " clip-rule="nonzero"/></clipPath><clipPath id="75109228d4"><rect x="0" width="114" y="0" height="114"/></clipPath><clipPath id="c76fccb1c6"><path d="M 49 49 L 138 49 L 138 138 L 49 138 Z M 49 49 " clip-rule="nonzero"/></clipPath><clipPath id="f326a63bf3"><path d="M 93.738281 46.761719 L 140.65625 93.679688 L 93.738281 140.597656 L 46.820312 93.679688 Z M 93.738281 46.761719 " clip-rule="nonzero"/></clipPath><clipPath id="5ee2bd92e6"><path d="M 99.039062 52.066406 L 135.351562 88.375 C 136.757812 89.78125 137.546875 91.691406 137.546875 93.679688 C 137.546875 95.667969 136.757812 97.574219 135.351562 98.980469 L 99.039062 135.292969 C 97.632812 136.699219 95.726562 137.488281 93.738281 137.488281 C 91.75 137.488281 89.839844 136.699219 88.433594 135.292969 L 52.125 98.980469 C 50.71875 97.574219 49.925781 95.667969 49.925781 93.679688 C 49.925781 91.691406 50.71875 89.78125 52.125 88.375 L 88.433594 52.066406 C 89.839844 50.65625 91.75 49.867188 93.738281 49.867188 C 95.726562 49.867188 97.632812 50.65625 99.039062 52.066406 Z M 99.039062 52.066406 " clip-rule="nonzero"/></clipPath><clipPath id="b05aa5a618"><path d="M 0.878906 0.640625 L 88.71875 0.640625 L 88.71875 88.71875 L 0.878906 88.71875 Z M 0.878906 0.640625 " clip-rule="nonzero"/></clipPath><clipPath id="dbd29158c4"><path d="M 44.738281 -2.238281 L 91.65625 44.679688 L 44.738281 91.597656 L -2.179688 44.679688 Z M 44.738281 -2.238281 " clip-rule="nonzero"/></clipPath><clipPath id="4dddc9a5ea"><path d="M 50.039062 3.066406 L 86.351562 39.375 C 87.757812 40.78125 88.546875 42.691406 88.546875 44.679688 C 88.546875 46.667969 87.757812 48.574219 86.351562 49.980469 L 50.039062 86.292969 C 48.632812 87.699219 46.726562 88.488281 44.738281 88.488281 C 42.75 88.488281 40.839844 87.699219 39.433594 86.292969 L 3.125 49.980469 C 1.71875 48.574219 0.925781 46.667969 0.925781 44.679688 C 0.925781 42.691406 1.71875 40.78125 3.125 39.375 L 39.433594 3.066406 C 40.839844 1.65625 42.75 0.867188 44.738281 0.867188 C 46.726562 0.867188 48.632812 1.65625 50.039062 3.066406 Z M 50.039062 3.066406 " clip-rule="nonzero"/></clipPath><clipPath id="b1e9e3f85e"><rect x="0" width="89" y="0" height="89"/></clipPath><clipPath id="3231a1dd45"><path d="M 49 49 L 138 49 L 138 138 L 49 138 Z M 49 49 " clip-rule="nonzero"/></clipPath><clipPath id="ffda7dafad"><path d="M 93.738281 46.761719 L 140.523438 93.546875 L 93.738281 140.335938 L 46.949219 93.546875 Z M 93.738281 46.761719 " clip-rule="nonzero"/></clipPath><clipPath id="bf6cf1e3c7"><path d="M 93.738281 46.761719 L 140.742188 93.765625 L 93.738281 140.773438 L 46.730469 93.765625 Z M 93.738281 46.761719 " clip-rule="nonzero"/></clipPath><clipPath id="2fbe914dbf"><path d="M 99.039062 52.0625 L 135.347656 88.371094 C 136.753906 89.777344 137.542969 91.6875 137.542969 93.675781 C 137.542969 95.664062 136.753906 97.570312 135.347656 98.976562 L 99.039062 135.285156 C 97.632812 136.691406 95.726562 137.480469 93.738281 137.480469 C 91.75 137.480469 89.839844 136.691406 88.433594 135.285156 L 52.125 98.976562 C 50.71875 97.570312 49.929688 95.664062 49.929688 93.675781 C 49.929688 91.6875 50.71875 89.777344 52.125 88.371094 L 88.433594 52.0625 C 89.839844 50.65625 91.75 49.867188 93.738281 49.867188 C 95.726562 49.867188 97.632812 50.65625 99.039062 52.0625 Z M 99.039062 52.0625 " clip-rule="nonzero"/></clipPath><clipPath id="9659b6527a"><rect x="0" width="229" y="0" height="229"/></clipPath></defs><rect x="-90" width="1080" fill="#ffffff" y="-47.099999" height="565.199986" fill-opacity="1"/><rect x="-90" width="1080" fill="#ffffff" y="-47.099999" height="565.199986" fill-opacity="1"/><g transform="matrix(1, 0, 0, 1, 67, 121)"><g clip-path="url(#9659b6527a)"><g clip-path="url(#f23cbc0542)"><g clip-path="url(#95387bf1fa)"><g transform="matrix(1, 0, 0, 1, 1, 1)"><g clip-path="url(#c4689cf39a)"><g clip-path="url(#65a09eb9e3)"><g clip-path="url(#3fe38e295d)"><path fill="#6666ff" d="M 0.125 0.0625 L 66.476562 0.0625 L 66.476562 66.414062 L 0.125 66.414062 Z M 0.125 0.0625 " fill-opacity="1" fill-rule="nonzero"/></g></g></g></g></g></g><g clip-path="url(#d3183b286f)"><g clip-path="url(#3feabcaa52)"><g transform="matrix(1, 0, 0, 1, 75, 1)"><g clip-path="url(#f135a0ee6e)"><g clip-path="url(#70fdaefd3b)"><g clip-path="url(#93bab5d267)"><path fill="#666666" d="M 0.769531 0.0625 L 152.910156 0.0625 L 152.910156 66.414062 L 0.769531 66.414062 Z M 0.769531 0.0625 " fill-opacity="1" fill-rule="nonzero"/></g></g></g></g></g></g><g clip-path="url(#81b92029a1)"><g clip-path="url(#cc810787c0)"><g transform="matrix(1, 0, 0, 1, 1, 75)"><g clip-path="url(#231cc20b3c)"><g clip-path="url(#f325094520)"><g clip-path="url(#c1ce4ff424)"><path fill="#666666" d="M 0.125 0.707031 L 66.476562 0.707031 L 66.476562 152.847656 L 0.125 152.847656 Z M 0.125 0.707031 " fill-opacity="1" fill-rule="nonzero"/></g></g></g></g></g></g><g clip-path="url(#e05de8c589)"><g clip-path="url(#1255cee61d)"><g transform="matrix(1, 0, 0, 1, 114, 114)"><g clip-path="url(#75109228d4)"><g clip-path="url(#2481073da1)"><g clip-path="url(#0bf00032f8)"><path fill="#6666ff" d="M 0.476562 0.414062 L 114 0.414062 L 114 113.9375 L 0.476562 113.9375 Z M 0.476562 0.414062 " fill-opacity="1" fill-rule="nonzero"/></g></g></g></g></g></g><g clip-path="url(#c76fccb1c6)"><g clip-path="url(#f326a63bf3)"><g clip-path="url(#5ee2bd92e6)"><g transform="matrix(1, 0, 0, 1, 49, 49)"><g clip-path="url(#b1e9e3f85e)"><g clip-path="url(#b05aa5a618)"><g clip-path="url(#dbd29158c4)"><g clip-path="url(#4dddc9a5ea)"><path fill="#ffffff" d="M 44.738281 -2.238281 L 91.65625 44.679688 L 44.738281 91.597656 L -2.179688 44.679688 Z M 44.738281 -2.238281 " fill-opacity="1" fill-rule="nonzero"/></g></g></g></g></g></g></g></g><g clip-path="url(#3231a1dd45)"><g clip-path="url(#ffda7dafad)"><g clip-path="url(#bf6cf1e3c7)"><g clip-path="url(#2fbe914dbf)"><path stroke-linecap="butt" transform="matrix(0.280159, 0.280159, -0.280159, 0.280159, 93.737409, 46.761366)" fill="none" stroke-linejoin="miter" d="M 18.922795 -0.000928336 L 148.522689 -0.000928336 C 153.542158 -0.000928336 158.359454 1.999888 161.907939 5.548373 C 165.456425 9.096859 167.450269 13.907183 167.450269 18.926652 L 167.450269 148.526546 C 167.450269 153.546015 165.456425 158.356339 161.907939 161.904825 C 158.359454 165.45331 153.542158 167.454126 148.522689 167.454126 L 18.922795 167.454126 C 13.903326 167.454126 9.093002 165.460282 5.544516 161.911796 C 1.996031 158.36331 -0.00478524 153.546015 -0.00478524 148.526546 L -0.00478524 18.926652 C -0.00478524 13.907183 1.996031 9.089887 5.544516 5.541402 C 9.093002 1.992916 13.903326 -0.000928336 18.922795 -0.000928336 Z M 18.922795 -0.000928336 " stroke="#000000" stroke-width="7.57184" stroke-opacity="1" stroke-miterlimit="4"/></g></g></g></g></g></g><g fill="#000000" fill-opacity="1"><g transform="translate(306.26173, 235.027859)"><g><path d="M 27.828125 -43.59375 L 33.5625 -43.59375 C 38.9375 -43.59375 42.957031 -44.648438 45.625 -46.765625 C 48.289062 -48.890625 49.625 -51.976562 49.625 -56.03125 C 49.625 -60.125 48.503906 -63.144531 46.265625 -65.09375 C 44.035156 -67.050781 40.535156 -68.03125 35.765625 -68.03125 L 27.828125 -68.03125 Z M 67.25 -56.65625 C 67.25 -47.789062 64.476562 -41.007812 58.9375 -36.3125 C 53.394531 -31.625 45.519531 -29.28125 35.3125 -29.28125 L 27.828125 -29.28125 L 27.828125 0 L 10.359375 0 L 10.359375 -82.34375 L 36.671875 -82.34375 C 46.648438 -82.34375 54.238281 -80.191406 59.4375 -75.890625 C 64.644531 -71.585938 67.25 -65.175781 67.25 -56.65625 Z M 67.25 -56.65625 "/></g></g></g><g fill="#000000" fill-opacity="1"><g transform="translate(378.684584, 235.027859)"><g><path d="M 8.28125 -79.25 C 8.28125 -84.84375 11.394531 -87.640625 17.625 -87.640625 C 23.863281 -87.640625 26.984375 -84.84375 26.984375 -79.25 C 26.984375 -76.582031 26.203125 -74.503906 24.640625 -73.015625 C 23.078125 -71.535156 20.738281 -70.796875 17.625 -70.796875 C 11.394531 -70.796875 8.28125 -73.613281 8.28125 -79.25 Z M 26.1875 0 L 9.015625 0 L 9.015625 -62.96875 L 26.1875 -62.96875 Z M 26.1875 0 "/></g></g></g><g fill="#000000" fill-opacity="1"><g transform="translate(413.882316, 235.027859)"><g><path d="M 34.578125 1.125 C 14.984375 1.125 5.1875 -9.628906 5.1875 -31.140625 C 5.1875 -41.847656 7.847656 -50.023438 13.171875 -55.671875 C 18.503906 -61.328125 26.144531 -64.15625 36.09375 -64.15625 C 43.382812 -64.15625 49.921875 -62.726562 55.703125 -59.875 L 50.625 -46.578125 C 47.925781 -47.660156 45.410156 -48.550781 43.078125 -49.25 C 40.753906 -49.945312 38.425781 -50.296875 36.09375 -50.296875 C 27.164062 -50.296875 22.703125 -43.945312 22.703125 -31.25 C 22.703125 -18.9375 27.164062 -12.78125 36.09375 -12.78125 C 39.40625 -12.78125 42.46875 -13.222656 45.28125 -14.109375 C 48.09375 -14.992188 50.910156 -16.375 53.734375 -18.25 L 53.734375 -3.546875 C 50.953125 -1.785156 48.144531 -0.566406 45.3125 0.109375 C 42.476562 0.785156 38.898438 1.125 34.578125 1.125 Z M 34.578125 1.125 "/></g></g></g><g fill="#000000" fill-opacity="1"><g transform="translate(473.183456, 235.027859)"><g><path d="M 35.53125 -12.5625 C 38.539062 -12.5625 42.144531 -13.21875 46.34375 -14.53125 L 46.34375 -1.75 C 42.070312 0.164062 36.816406 1.125 30.578125 1.125 C 23.710938 1.125 18.710938 -0.609375 15.578125 -4.078125 C 12.441406 -7.554688 10.875 -12.769531 10.875 -19.71875 L 10.875 -50.0625 L 2.640625 -50.0625 L 2.640625 -57.328125 L 12.109375 -63.078125 L 17.0625 -76.375 L 28.046875 -76.375 L 28.046875 -62.96875 L 45.671875 -62.96875 L 45.671875 -50.0625 L 28.046875 -50.0625 L 28.046875 -19.71875 C 28.046875 -17.269531 28.726562 -15.460938 30.09375 -14.296875 C 31.46875 -13.140625 33.28125 -12.5625 35.53125 -12.5625 Z M 35.53125 -12.5625 "/></g></g></g><g fill="#000000" fill-opacity="1"><g transform="translate(523.248699, 235.027859)"><g><path d="M 27.828125 -45.78125 L 33.453125 -45.78125 C 38.972656 -45.78125 43.046875 -46.703125 45.671875 -48.546875 C 48.304688 -50.390625 49.625 -53.28125 49.625 -57.21875 C 49.625 -61.125 48.28125 -63.898438 45.59375 -65.546875 C 42.90625 -67.203125 38.742188 -68.03125 33.109375 -68.03125 L 27.828125 -68.03125 Z M 27.828125 -31.59375 L 27.828125 0 L 10.359375 0 L 10.359375 -82.34375 L 34.359375 -82.34375 C 45.546875 -82.34375 53.820312 -80.304688 59.1875 -76.234375 C 64.5625 -72.160156 67.25 -65.972656 67.25 -57.671875 C 67.25 -52.828125 65.914062 -48.519531 63.25 -44.75 C 60.582031 -40.976562 56.804688 -38.019531 51.921875 -35.875 L 76.140625 0 L 56.765625 0 L 37.109375 -31.59375 Z M 27.828125 -31.59375 "/></g></g></g><g fill="#000000" fill-opacity="1"><g transform="translate(599.388434, 235.027859)"><g><path d="M 8.28125 -79.25 C 8.28125 -84.84375 11.394531 -87.640625 17.625 -87.640625 C 23.863281 -87.640625 26.984375 -84.84375 26.984375 -79.25 C 26.984375 -76.582031 26.203125 -74.503906 24.640625 -73.015625 C 23.078125 -71.535156 20.738281 -70.796875 17.625 -70.796875 C 11.394531 -70.796875 8.28125 -73.613281 8.28125 -79.25 Z M 26.1875 0 L 9.015625 0 L 9.015625 -62.96875 L 26.1875 -62.96875 Z M 26.1875 0 "/></g></g></g><g fill="#000000" fill-opacity="1"><g transform="translate(634.586178, 235.027859)"><g><path d="M 28.953125 1.125 C 21.554688 1.125 15.742188 -1.742188 11.515625 -7.484375 C 7.296875 -13.234375 5.1875 -21.195312 5.1875 -31.375 C 5.1875 -41.695312 7.332031 -49.738281 11.625 -55.5 C 15.925781 -61.269531 21.851562 -64.15625 29.40625 -64.15625 C 37.320312 -64.15625 43.363281 -61.070312 47.53125 -54.90625 L 48.09375 -54.90625 C 47.226562 -59.601562 46.796875 -63.789062 46.796875 -67.46875 L 46.796875 -87.640625 L 64.03125 -87.640625 L 64.03125 0 L 50.859375 0 L 47.53125 -8.171875 L 46.796875 -8.171875 C 42.890625 -1.972656 36.941406 1.125 28.953125 1.125 Z M 34.96875 -12.5625 C 39.363281 -12.5625 42.582031 -13.835938 44.625 -16.390625 C 46.675781 -18.941406 47.796875 -23.28125 47.984375 -29.40625 L 47.984375 -31.25 C 47.984375 -38.007812 46.941406 -42.851562 44.859375 -45.78125 C 42.773438 -48.71875 39.382812 -50.1875 34.6875 -50.1875 C 30.863281 -50.1875 27.890625 -48.5625 25.765625 -45.3125 C 23.640625 -42.0625 22.578125 -37.335938 22.578125 -31.140625 C 22.578125 -24.953125 23.644531 -20.304688 25.78125 -17.203125 C 27.925781 -14.109375 30.988281 -12.5625 34.96875 -12.5625 Z M 34.96875 -12.5625 "/></g></g></g><g fill="#000000" fill-opacity="1"><g transform="translate(707.572219, 235.027859)"><g><path d="M 35.09375 -51.921875 C 31.445312 -51.921875 28.585938 -50.765625 26.515625 -48.453125 C 24.453125 -46.148438 23.273438 -42.878906 22.984375 -38.640625 L 47.078125 -38.640625 C 47.003906 -42.878906 45.894531 -46.148438 43.75 -48.453125 C 41.613281 -50.765625 38.726562 -51.921875 35.09375 -51.921875 Z M 37.515625 1.125 C 27.367188 1.125 19.441406 -1.671875 13.734375 -7.265625 C 8.035156 -12.859375 5.1875 -20.78125 5.1875 -31.03125 C 5.1875 -41.582031 7.820312 -49.738281 13.09375 -55.5 C 18.363281 -61.269531 25.65625 -64.15625 34.96875 -64.15625 C 43.875 -64.15625 50.800781 -61.617188 55.75 -56.546875 C 60.707031 -51.472656 63.1875 -44.46875 63.1875 -35.53125 L 63.1875 -27.203125 L 22.578125 -27.203125 C 22.765625 -22.316406 24.207031 -18.503906 26.90625 -15.765625 C 29.613281 -13.023438 33.410156 -11.65625 38.296875 -11.65625 C 42.085938 -11.65625 45.671875 -12.050781 49.046875 -12.84375 C 52.429688 -13.632812 55.960938 -14.890625 59.640625 -16.609375 L 59.640625 -3.328125 C 56.640625 -1.816406 53.429688 -0.695312 50.015625 0.03125 C 46.597656 0.757812 42.429688 1.125 37.515625 1.125 Z M 37.515625 1.125 "/></g></g></g><g fill="#000000" fill-opacity="1"><g transform="translate(775.715006, 235.027859)"><g><path d="M 44.15625 -64.15625 C 46.476562 -64.15625 48.410156 -63.984375 49.953125 -63.640625 L 48.65625 -47.53125 C 47.269531 -47.90625 45.582031 -48.09375 43.59375 -48.09375 C 38.113281 -48.09375 33.84375 -46.6875 30.78125 -43.875 C 27.71875 -41.0625 26.1875 -37.117188 26.1875 -32.046875 L 26.1875 0 L 9.015625 0 L 9.015625 -62.96875 L 22.015625 -62.96875 L 24.5625 -52.375 L 25.40625 -52.375 C 27.351562 -55.90625 29.988281 -58.75 33.3125 -60.90625 C 36.632812 -63.070312 40.25 -64.15625 44.15625 -64.15625 Z M 44.15625 -64.15625 "/></g></g></g><g fill="#000000" fill-opacity="1"><g transform="translate(381.148403, 289.699989)"><g><path d="M 15.515625 -14.109375 C 15.515625 -12.066406 14.816406 -10.5 13.421875 -9.40625 C 12.023438 -8.320312 10.0625 -7.78125 7.53125 -7.78125 L 5.234375 -7.78125 L 5.234375 0 L 2.71875 0 L 2.71875 -19.984375 L 8.015625 -19.984375 C 13.015625 -19.984375 15.515625 -18.023438 15.515625 -14.109375 Z M 5.234375 -9.9375 L 7.25 -9.9375 C 9.238281 -9.9375 10.675781 -10.257812 11.5625 -10.90625 C 12.457031 -11.550781 12.90625 -12.582031 12.90625 -14 C 12.90625 -15.28125 12.488281 -16.238281 11.65625 -16.875 C 10.832031 -17.519531 9.539062 -17.84375 7.78125 -17.84375 L 5.234375 -17.84375 Z M 5.234375 -9.9375 "/></g></g></g><g fill="#000000" fill-opacity="1"><g transform="translate(398.085498, 289.699989)"><g><path d="M 11.65625 0 L 11.171875 -2.140625 L 11.0625 -2.140625 C 10.3125 -1.191406 9.566406 -0.550781 8.828125 -0.21875 C 8.085938 0.113281 7.148438 0.28125 6.015625 0.28125 C 4.535156 0.28125 3.375 -0.101562 2.53125 -0.875 C 1.695312 -1.65625 1.28125 -2.753906 1.28125 -4.171875 C 1.28125 -7.210938 3.679688 -8.804688 8.484375 -8.953125 L 11.03125 -9.046875 L 11.03125 -9.9375 C 11.03125 -11.082031 10.785156 -11.925781 10.296875 -12.46875 C 9.804688 -13.007812 9.019531 -13.28125 7.9375 -13.28125 C 7.132812 -13.28125 6.378906 -13.160156 5.671875 -12.921875 C 4.972656 -12.679688 4.3125 -12.414062 3.6875 -12.125 L 2.9375 -13.96875 C 3.695312 -14.375 4.519531 -14.691406 5.40625 -14.921875 C 6.300781 -15.148438 7.1875 -15.265625 8.0625 -15.265625 C 9.875 -15.265625 11.222656 -14.863281 12.109375 -14.0625 C 12.992188 -13.257812 13.4375 -11.984375 13.4375 -10.234375 L 13.4375 0 Z M 6.578125 -1.703125 C 7.953125 -1.703125 9.03125 -2.070312 9.8125 -2.8125 C 10.601562 -3.5625 11 -4.617188 11 -5.984375 L 11 -7.34375 L 8.796875 -7.25 C 7.066406 -7.1875 5.804688 -6.910156 5.015625 -6.421875 C 4.234375 -5.941406 3.84375 -5.179688 3.84375 -4.140625 C 3.84375 -3.359375 4.082031 -2.753906 4.5625 -2.328125 C 5.039062 -1.910156 5.710938 -1.703125 6.578125 -1.703125 Z M 6.578125 -1.703125 "/></g></g></g><g fill="#000000" fill-opacity="1"><g transform="translate(413.792295, 289.699989)"><g><path d="M 4.84375 0 L 2.375 0 L 2.375 -15.015625 L 4.84375 -15.015625 Z M 2.1875 -19.078125 C 2.1875 -19.617188 2.320312 -20.007812 2.59375 -20.25 C 2.875 -20.5 3.222656 -20.625 3.640625 -20.625 C 4.023438 -20.625 4.359375 -20.5 4.640625 -20.25 C 4.929688 -20.007812 5.078125 -19.617188 5.078125 -19.078125 C 5.078125 -18.535156 4.929688 -18.132812 4.640625 -17.875 C 4.359375 -17.625 4.023438 -17.5 3.640625 -17.5 C 3.222656 -17.5 2.875 -17.625 2.59375 -17.875 C 2.320312 -18.132812 2.1875 -18.535156 2.1875 -19.078125 Z M 2.1875 -19.078125 "/></g></g></g><g fill="#000000" fill-opacity="1"><g transform="translate(421.010038, 289.699989)"><g><path d="M 9.375 -15.28125 C 10.039062 -15.28125 10.628906 -15.226562 11.140625 -15.125 L 10.84375 -12.859375 C 10.289062 -12.984375 9.75 -13.046875 9.21875 -13.046875 C 8.425781 -13.046875 7.6875 -12.828125 7 -12.390625 C 6.320312 -11.953125 5.789062 -11.347656 5.40625 -10.578125 C 5.03125 -9.804688 4.84375 -8.953125 4.84375 -8.015625 L 4.84375 0 L 2.375 0 L 2.375 -15.015625 L 4.40625 -15.015625 L 4.671875 -12.265625 L 4.78125 -12.265625 C 5.351562 -13.253906 6.03125 -14.003906 6.8125 -14.515625 C 7.601562 -15.023438 8.457031 -15.28125 9.375 -15.28125 Z M 9.375 -15.28125 "/></g></g></g><g fill="#000000" fill-opacity="1"><g transform="translate(432.574829, 289.699989)"><g><path d="M 14.640625 0 L 12.078125 -8.453125 C 11.835938 -9.148438 11.488281 -10.472656 11.03125 -12.421875 L 10.921875 -12.421875 C 10.535156 -10.648438 10.195312 -9.316406 9.90625 -8.421875 L 7.21875 0 L 4.4375 0 L 0.3125 -15.015625 L 2.859375 -15.015625 C 3.804688 -11.316406 4.523438 -8.503906 5.015625 -6.578125 C 5.515625 -4.660156 5.8125 -3.304688 5.90625 -2.515625 L 6.015625 -2.515625 L 6.203125 -3.359375 C 6.484375 -4.660156 6.757812 -5.722656 7.03125 -6.546875 L 9.6875 -15.015625 L 12.375 -15.015625 L 14.953125 -6.546875 C 15.046875 -6.234375 15.144531 -5.894531 15.25 -5.53125 C 15.351562 -5.164062 15.453125 -4.804688 15.546875 -4.453125 C 15.640625 -4.109375 15.722656 -3.769531 15.796875 -3.4375 C 15.867188 -3.101562 15.921875 -2.804688 15.953125 -2.546875 L 16.078125 -2.546875 C 16.160156 -3.234375 16.492188 -4.71875 17.078125 -7 L 19.1875 -15.015625 L 21.703125 -15.015625 L 17.53125 0 Z M 14.640625 0 "/></g></g></g><g fill="#000000" fill-opacity="1"><g transform="translate(454.583476, 289.699989)"><g><path d="M 4.84375 0 L 2.375 0 L 2.375 -15.015625 L 4.84375 -15.015625 Z M 2.1875 -19.078125 C 2.1875 -19.617188 2.320312 -20.007812 2.59375 -20.25 C 2.875 -20.5 3.222656 -20.625 3.640625 -20.625 C 4.023438 -20.625 4.359375 -20.5 4.640625 -20.25 C 4.929688 -20.007812 5.078125 -19.617188 5.078125 -19.078125 C 5.078125 -18.535156 4.929688 -18.132812 4.640625 -17.875 C 4.359375 -17.625 4.023438 -17.5 3.640625 -17.5 C 3.222656 -17.5 2.875 -17.625 2.59375 -17.875 C 2.320312 -18.132812 2.1875 -18.535156 2.1875 -19.078125 Z M 2.1875 -19.078125 "/></g></g></g><g fill="#000000" fill-opacity="1"><g transform="translate(461.801218, 289.699989)"><g><path d="M 12.15625 -4.140625 C 12.15625 -2.734375 11.628906 -1.644531 10.578125 -0.875 C 9.535156 -0.101562 8.066406 0.28125 6.171875 0.28125 C 4.191406 0.28125 2.617188 -0.0351562 1.453125 -0.671875 L 1.453125 -2.90625 C 3.097656 -2.101562 4.6875 -1.703125 6.21875 -1.703125 C 7.457031 -1.703125 8.359375 -1.898438 8.921875 -2.296875 C 9.492188 -2.703125 9.78125 -3.242188 9.78125 -3.921875 C 9.78125 -4.515625 9.507812 -5.015625 8.96875 -5.421875 C 8.425781 -5.835938 7.460938 -6.3125 6.078125 -6.84375 C 4.660156 -7.382812 3.664062 -7.847656 3.09375 -8.234375 C 2.519531 -8.617188 2.097656 -9.050781 1.828125 -9.53125 C 1.554688 -10.019531 1.421875 -10.613281 1.421875 -11.3125 C 1.421875 -12.539062 1.921875 -13.507812 2.921875 -14.21875 C 3.929688 -14.925781 5.3125 -15.28125 7.0625 -15.28125 C 8.757812 -15.28125 10.351562 -14.945312 11.84375 -14.28125 L 11 -12.3125 C 9.476562 -12.957031 8.109375 -13.28125 6.890625 -13.28125 C 5.867188 -13.28125 5.09375 -13.117188 4.5625 -12.796875 C 4.039062 -12.472656 3.78125 -12.023438 3.78125 -11.453125 C 3.78125 -10.910156 4.003906 -10.457031 4.453125 -10.09375 C 4.910156 -9.738281 5.972656 -9.238281 7.640625 -8.59375 C 8.890625 -8.132812 9.8125 -7.703125 10.40625 -7.296875 C 11.007812 -6.898438 11.453125 -6.453125 11.734375 -5.953125 C 12.015625 -5.453125 12.15625 -4.847656 12.15625 -4.140625 Z M 12.15625 -4.140625 "/></g></g></g><g fill="#000000" fill-opacity="1"><g transform="translate(475.211461, 289.699989)"><g><path d="M 8.765625 0.28125 C 6.515625 0.28125 4.75 -0.398438 3.46875 -1.765625 C 2.1875 -3.128906 1.546875 -5.003906 1.546875 -7.390625 C 1.546875 -9.796875 2.140625 -11.710938 3.328125 -13.140625 C 4.523438 -14.566406 6.140625 -15.28125 8.171875 -15.28125 C 10.054688 -15.28125 11.5625 -14.671875 12.6875 -13.453125 C 13.8125 -12.242188 14.375 -10.597656 14.375 -8.515625 L 14.375 -7.03125 L 4.09375 -7.03125 C 4.132812 -5.320312 4.566406 -4.023438 5.390625 -3.140625 C 6.210938 -2.253906 7.375 -1.8125 8.875 -1.8125 C 9.675781 -1.8125 10.4375 -1.882812 11.15625 -2.03125 C 11.875 -2.175781 12.71875 -2.453125 13.6875 -2.859375 L 13.6875 -0.703125 C 12.851562 -0.347656 12.070312 -0.0976562 11.34375 0.046875 C 10.613281 0.203125 9.753906 0.28125 8.765625 0.28125 Z M 8.15625 -13.28125 C 6.976562 -13.28125 6.046875 -12.898438 5.359375 -12.140625 C 4.671875 -11.378906 4.265625 -10.328125 4.140625 -8.984375 L 11.78125 -8.984375 C 11.769531 -10.390625 11.445312 -11.457031 10.8125 -12.1875 C 10.1875 -12.914062 9.300781 -13.28125 8.15625 -13.28125 Z M 8.15625 -13.28125 "/></g></g></g><g fill="#000000" fill-opacity="1"><g transform="translate(498.272701, 289.699989)"><g><path d="M 9.046875 0 L 6.515625 0 L 6.515625 -17.78125 L 0.28125 -17.78125 L 0.28125 -19.984375 L 15.265625 -19.984375 L 15.265625 -17.78125 L 9.046875 -17.78125 Z M 9.046875 0 "/></g></g></g><g fill="#000000" fill-opacity="1"><g transform="translate(513.842799, 289.699989)"><g><path d="M 8.765625 0.28125 C 6.515625 0.28125 4.75 -0.398438 3.46875 -1.765625 C 2.1875 -3.128906 1.546875 -5.003906 1.546875 -7.390625 C 1.546875 -9.796875 2.140625 -11.710938 3.328125 -13.140625 C 4.523438 -14.566406 6.140625 -15.28125 8.171875 -15.28125 C 10.054688 -15.28125 11.5625 -14.671875 12.6875 -13.453125 C 13.8125 -12.242188 14.375 -10.597656 14.375 -8.515625 L 14.375 -7.03125 L 4.09375 -7.03125 C 4.132812 -5.320312 4.566406 -4.023438 5.390625 -3.140625 C 6.210938 -2.253906 7.375 -1.8125 8.875 -1.8125 C 9.675781 -1.8125 10.4375 -1.882812 11.15625 -2.03125 C 11.875 -2.175781 12.71875 -2.453125 13.6875 -2.859375 L 13.6875 -0.703125 C 12.851562 -0.347656 12.070312 -0.0976562 11.34375 0.046875 C 10.613281 0.203125 9.753906 0.28125 8.765625 0.28125 Z M 8.15625 -13.28125 C 6.976562 -13.28125 6.046875 -12.898438 5.359375 -12.140625 C 4.671875 -11.378906 4.265625 -10.328125 4.140625 -8.984375 L 11.78125 -8.984375 C 11.769531 -10.390625 11.445312 -11.457031 10.8125 -12.1875 C 10.1875 -12.914062 9.300781 -13.28125 8.15625 -13.28125 Z M 8.15625 -13.28125 "/></g></g></g><g fill="#000000" fill-opacity="1"><g transform="translate(529.631616, 289.699989)"><g><path d="M 12.15625 -4.140625 C 12.15625 -2.734375 11.628906 -1.644531 10.578125 -0.875 C 9.535156 -0.101562 8.066406 0.28125 6.171875 0.28125 C 4.191406 0.28125 2.617188 -0.0351562 1.453125 -0.671875 L 1.453125 -2.90625 C 3.097656 -2.101562 4.6875 -1.703125 6.21875 -1.703125 C 7.457031 -1.703125 8.359375 -1.898438 8.921875 -2.296875 C 9.492188 -2.703125 9.78125 -3.242188 9.78125 -3.921875 C 9.78125 -4.515625 9.507812 -5.015625 8.96875 -5.421875 C 8.425781 -5.835938 7.460938 -6.3125 6.078125 -6.84375 C 4.660156 -7.382812 3.664062 -7.847656 3.09375 -8.234375 C 2.519531 -8.617188 2.097656 -9.050781 1.828125 -9.53125 C 1.554688 -10.019531 1.421875 -10.613281 1.421875 -11.3125 C 1.421875 -12.539062 1.921875 -13.507812 2.921875 -14.21875 C 3.929688 -14.925781 5.3125 -15.28125 7.0625 -15.28125 C 8.757812 -15.28125 10.351562 -14.945312 11.84375 -14.28125 L 11 -12.3125 C 9.476562 -12.957031 8.109375 -13.28125 6.890625 -13.28125 C 5.867188 -13.28125 5.09375 -13.117188 4.5625 -12.796875 C 4.039062 -12.472656 3.78125 -12.023438 3.78125 -11.453125 C 3.78125 -10.910156 4.003906 -10.457031 4.453125 -10.09375 C 4.910156 -9.738281 5.972656 -9.238281 7.640625 -8.59375 C 8.890625 -8.132812 9.8125 -7.703125 10.40625 -7.296875 C 11.007812 -6.898438 11.453125 -6.453125 11.734375 -5.953125 C 12.015625 -5.453125 12.15625 -4.847656 12.15625 -4.140625 Z M 12.15625 -4.140625 "/></g></g></g><g fill="#000000" fill-opacity="1"><g transform="translate(543.041859, 289.699989)"><g><path d="M 7.390625 -1.734375 C 7.710938 -1.734375 8.085938 -1.765625 8.515625 -1.828125 C 8.941406 -1.890625 9.265625 -1.960938 9.484375 -2.046875 L 9.484375 -0.171875 C 9.253906 -0.0664062 8.898438 0.03125 8.421875 0.125 C 7.953125 0.226562 7.46875 0.28125 6.96875 0.28125 C 4.039062 0.28125 2.578125 -1.265625 2.578125 -4.359375 L 2.578125 -13.09375 L 0.453125 -13.09375 L 0.453125 -14.28125 L 2.59375 -15.265625 L 3.578125 -18.453125 L 5.046875 -18.453125 L 5.046875 -15.015625 L 9.375 -15.015625 L 9.375 -13.09375 L 5.046875 -13.09375 L 5.046875 -4.4375 C 5.046875 -3.5625 5.253906 -2.890625 5.671875 -2.421875 C 6.085938 -1.960938 6.660156 -1.734375 7.390625 -1.734375 Z M 7.390625 -1.734375 "/></g></g></g><g fill="#000000" fill-opacity="1"><g transform="translate(553.14397, 289.699989)"><g><path d="M 4.84375 0 L 2.375 0 L 2.375 -15.015625 L 4.84375 -15.015625 Z M 2.1875 -19.078125 C 2.1875 -19.617188 2.320312 -20.007812 2.59375 -20.25 C 2.875 -20.5 3.222656 -20.625 3.640625 -20.625 C 4.023438 -20.625 4.359375 -20.5 4.640625 -20.25 C 4.929688 -20.007812 5.078125 -19.617188 5.078125 -19.078125 C 5.078125 -18.535156 4.929688 -18.132812 4.640625 -17.875 C 4.359375 -17.625 4.023438 -17.5 3.640625 -17.5 C 3.222656 -17.5 2.875 -17.625 2.59375 -17.875 C 2.320312 -18.132812 2.1875 -18.535156 2.1875 -19.078125 Z M 2.1875 -19.078125 "/></g></g></g><g fill="#000000" fill-opacity="1"><g transform="translate(560.361713, 289.699989)"><g><path d="M 12.609375 0 L 12.609375 -9.59375 C 12.609375 -10.820312 12.335938 -11.734375 11.796875 -12.328125 C 11.253906 -12.921875 10.40625 -13.21875 9.25 -13.21875 C 7.707031 -13.21875 6.585938 -12.789062 5.890625 -11.9375 C 5.191406 -11.09375 4.84375 -9.707031 4.84375 -7.78125 L 4.84375 0 L 2.375 0 L 2.375 -15.015625 L 4.359375 -15.015625 L 4.734375 -12.96875 L 4.875 -12.96875 C 5.332031 -13.695312 5.976562 -14.265625 6.8125 -14.671875 C 7.65625 -15.078125 8.582031 -15.28125 9.59375 -15.28125 C 11.4375 -15.28125 12.804688 -14.832031 13.703125 -13.9375 C 14.597656 -13.050781 15.046875 -11.664062 15.046875 -9.78125 L 15.046875 0 Z M 12.609375 0 "/></g></g></g><g fill="#000000" fill-opacity="1"><g transform="translate(577.66789, 289.699989)"><g><path d="M 8.09375 -1.734375 C 9.601562 -1.734375 10.703125 -2.140625 11.390625 -2.953125 C 12.078125 -3.773438 12.421875 -5.085938 12.421875 -6.890625 L 12.421875 -7.484375 C 12.421875 -9.484375 12.070312 -10.9375 11.375 -11.84375 C 10.6875 -12.757812 9.578125 -13.21875 8.046875 -13.21875 C 6.785156 -13.21875 5.8125 -12.71875 5.125 -11.71875 C 4.4375 -10.726562 4.09375 -9.304688 4.09375 -7.453125 C 4.09375 -5.585938 4.425781 -4.164062 5.09375 -3.1875 C 5.757812 -2.21875 6.757812 -1.734375 8.09375 -1.734375 Z M 12.40625 -0.140625 L 12.484375 -1.984375 L 12.375 -1.984375 C 11.363281 -0.472656 9.8125 0.28125 7.71875 0.28125 C 5.78125 0.28125 4.265625 -0.394531 3.171875 -1.75 C 2.085938 -3.101562 1.546875 -5.015625 1.546875 -7.484375 C 1.546875 -9.898438 2.09375 -11.800781 3.1875 -13.1875 C 4.289062 -14.582031 5.796875 -15.28125 7.703125 -15.28125 C 9.734375 -15.28125 11.300781 -14.523438 12.40625 -13.015625 L 12.546875 -13.015625 L 12.875 -15.015625 L 14.828125 -15.015625 L 14.828125 0.25 C 14.828125 2.394531 14.28125 4.007812 13.1875 5.09375 C 12.101562 6.1875 10.414062 6.734375 8.125 6.734375 C 5.9375 6.734375 4.132812 6.410156 2.71875 5.765625 L 2.71875 3.5 C 4.175781 4.28125 6.023438 4.671875 8.265625 4.671875 C 9.535156 4.671875 10.539062 4.296875 11.28125 3.546875 C 12.03125 2.804688 12.40625 1.773438 12.40625 0.453125 Z M 12.40625 -0.140625 "/></g></g></g><g fill="#000000" fill-opacity="1"><g transform="translate(594.892049, 289.699989)"><g/></g></g><g fill="#000000" fill-opacity="1"><g transform="translate(602.164471, 289.699989)"><g><path d="M 15.421875 -7.53125 C 15.421875 -5.082031 14.800781 -3.164062 13.5625 -1.78125 C 12.320312 -0.40625 10.609375 0.28125 8.421875 0.28125 C 7.066406 0.28125 5.863281 -0.0351562 4.8125 -0.671875 C 3.757812 -1.304688 2.953125 -2.21875 2.390625 -3.40625 C 1.828125 -4.59375 1.546875 -5.96875 1.546875 -7.53125 C 1.546875 -9.976562 2.15625 -11.878906 3.375 -13.234375 C 4.59375 -14.597656 6.304688 -15.28125 8.515625 -15.28125 C 10.628906 -15.28125 12.304688 -14.582031 13.546875 -13.1875 C 14.796875 -11.800781 15.421875 -9.914062 15.421875 -7.53125 Z M 4.09375 -7.53125 C 4.09375 -5.644531 4.460938 -4.210938 5.203125 -3.234375 C 5.941406 -2.253906 7.035156 -1.765625 8.484375 -1.765625 C 9.921875 -1.765625 11.007812 -2.253906 11.75 -3.234375 C 12.5 -4.210938 12.875 -5.644531 12.875 -7.53125 C 12.875 -9.414062 12.5 -10.832031 11.75 -11.78125 C 11 -12.738281 9.898438 -13.21875 8.453125 -13.21875 C 5.546875 -13.21875 4.09375 -11.320312 4.09375 -7.53125 Z M 4.09375 -7.53125 "/></g></g></g><g fill="#000000" fill-opacity="1"><g transform="translate(619.101565, 289.699989)"><g><path d="M 12.609375 0 L 12.609375 -9.59375 C 12.609375 -10.820312 12.335938 -11.734375 11.796875 -12.328125 C 11.253906 -12.921875 10.40625 -13.21875 9.25 -13.21875 C 7.707031 -13.21875 6.585938 -12.789062 5.890625 -11.9375 C 5.191406 -11.09375 4.84375 -9.707031 4.84375 -7.78125 L 4.84375 0 L 2.375 0 L 2.375 -15.015625 L 4.359375 -15.015625 L 4.734375 -12.96875 L 4.875 -12.96875 C 5.332031 -13.695312 5.976562 -14.265625 6.8125 -14.671875 C 7.65625 -15.078125 8.582031 -15.28125 9.59375 -15.28125 C 11.4375 -15.28125 12.804688 -14.832031 13.703125 -13.9375 C 14.597656 -13.050781 15.046875 -11.664062 15.046875 -9.78125 L 15.046875 0 Z M 12.609375 0 "/></g></g></g><g fill="#000000" fill-opacity="1"><g transform="translate(636.407755, 289.699989)"><g/></g></g><g fill="#000000" fill-opacity="1"><g transform="translate(643.680154, 289.699989)"><g><path d="M 7.390625 -1.734375 C 7.710938 -1.734375 8.085938 -1.765625 8.515625 -1.828125 C 8.941406 -1.890625 9.265625 -1.960938 9.484375 -2.046875 L 9.484375 -0.171875 C 9.253906 -0.0664062 8.898438 0.03125 8.421875 0.125 C 7.953125 0.226562 7.46875 0.28125 6.96875 0.28125 C 4.039062 0.28125 2.578125 -1.265625 2.578125 -4.359375 L 2.578125 -13.09375 L 0.453125 -13.09375 L 0.453125 -14.28125 L 2.59375 -15.265625 L 3.578125 -18.453125 L 5.046875 -18.453125 L 5.046875 -15.015625 L 9.375 -15.015625 L 9.375 -13.09375 L 5.046875 -13.09375 L 5.046875 -4.4375 C 5.046875 -3.5625 5.253906 -2.890625 5.671875 -2.421875 C 6.085938 -1.960938 6.660156 -1.734375 7.390625 -1.734375 Z M 7.390625 -1.734375 "/></g></g></g><g fill="#000000" fill-opacity="1"><g transform="translate(653.782265, 289.699989)"><g><path d="M 12.609375 0 L 12.609375 -9.59375 C 12.609375 -10.820312 12.335938 -11.734375 11.796875 -12.328125 C 11.253906 -12.921875 10.40625 -13.21875 9.25 -13.21875 C 7.71875 -13.21875 6.597656 -12.789062 5.890625 -11.9375 C 5.191406 -11.09375 4.84375 -9.695312 4.84375 -7.75 L 4.84375 0 L 2.375 0 L 2.375 -21.28125 L 4.84375 -21.28125 L 4.84375 -15.046875 C 4.84375 -14.222656 4.796875 -13.519531 4.703125 -12.9375 L 4.875 -12.9375 C 5.3125 -13.664062 5.941406 -14.234375 6.765625 -14.640625 C 7.585938 -15.054688 8.515625 -15.265625 9.546875 -15.265625 C 11.367188 -15.265625 12.738281 -14.828125 13.65625 -13.953125 C 14.582031 -13.078125 15.046875 -11.6875 15.046875 -9.78125 L 15.046875 0 Z M 12.609375 0 "/></g></g></g><g fill="#000000" fill-opacity="1"><g transform="translate(671.088455, 289.699989)"><g><path d="M 8.765625 0.28125 C 6.515625 0.28125 4.75 -0.398438 3.46875 -1.765625 C 2.1875 -3.128906 1.546875 -5.003906 1.546875 -7.390625 C 1.546875 -9.796875 2.140625 -11.710938 3.328125 -13.140625 C 4.523438 -14.566406 6.140625 -15.28125 8.171875 -15.28125 C 10.054688 -15.28125 11.5625 -14.671875 12.6875 -13.453125 C 13.8125 -12.242188 14.375 -10.597656 14.375 -8.515625 L 14.375 -7.03125 L 4.09375 -7.03125 C 4.132812 -5.320312 4.566406 -4.023438 5.390625 -3.140625 C 6.210938 -2.253906 7.375 -1.8125 8.875 -1.8125 C 9.675781 -1.8125 10.4375 -1.882812 11.15625 -2.03125 C 11.875 -2.175781 12.71875 -2.453125 13.6875 -2.859375 L 13.6875 -0.703125 C 12.851562 -0.347656 12.070312 -0.0976562 11.34375 0.046875 C 10.613281 0.203125 9.753906 0.28125 8.765625 0.28125 Z M 8.15625 -13.28125 C 6.976562 -13.28125 6.046875 -12.898438 5.359375 -12.140625 C 4.671875 -11.378906 4.265625 -10.328125 4.140625 -8.984375 L 11.78125 -8.984375 C 11.769531 -10.390625 11.445312 -11.457031 10.8125 -12.1875 C 10.1875 -12.914062 9.300781 -13.28125 8.15625 -13.28125 Z M 8.15625 -13.28125 "/></g></g></g><g fill="#000000" fill-opacity="1"><g transform="translate(686.877272, 289.699989)"><g/></g></g><g fill="#000000" fill-opacity="1"><g transform="translate(694.149695, 289.699989)"><g><path d="M 20.359375 0 L 17.8125 0 L 13.921875 -13.09375 C 13.347656 -15.050781 13.007812 -16.367188 12.90625 -17.046875 C 12.757812 -16.003906 12.441406 -14.660156 11.953125 -13.015625 L 8.171875 0 L 5.640625 0 L 0.34375 -19.984375 L 2.96875 -19.984375 L 6.078125 -7.78125 C 6.492188 -6.1875 6.8125 -4.597656 7.03125 -3.015625 C 7.226562 -4.515625 7.582031 -6.15625 8.09375 -7.9375 L 11.625 -19.984375 L 14.21875 -19.984375 L 17.890625 -7.828125 C 18.367188 -6.253906 18.734375 -4.648438 18.984375 -3.015625 C 19.128906 -4.273438 19.457031 -5.875 19.96875 -7.8125 L 23.046875 -19.984375 L 25.671875 -19.984375 Z M 20.359375 0 "/></g></g></g><g fill="#000000" fill-opacity="1"><g transform="translate(720.190999, 289.699989)"><g><path d="M 8.765625 0.28125 C 6.515625 0.28125 4.75 -0.398438 3.46875 -1.765625 C 2.1875 -3.128906 1.546875 -5.003906 1.546875 -7.390625 C 1.546875 -9.796875 2.140625 -11.710938 3.328125 -13.140625 C 4.523438 -14.566406 6.140625 -15.28125 8.171875 -15.28125 C 10.054688 -15.28125 11.5625 -14.671875 12.6875 -13.453125 C 13.8125 -12.242188 14.375 -10.597656 14.375 -8.515625 L 14.375 -7.03125 L 4.09375 -7.03125 C 4.132812 -5.320312 4.566406 -4.023438 5.390625 -3.140625 C 6.210938 -2.253906 7.375 -1.8125 8.875 -1.8125 C 9.675781 -1.8125 10.4375 -1.882812 11.15625 -2.03125 C 11.875 -2.175781 12.71875 -2.453125 13.6875 -2.859375 L 13.6875 -0.703125 C 12.851562 -0.347656 12.070312 -0.0976562 11.34375 0.046875 C 10.613281 0.203125 9.753906 0.28125 8.765625 0.28125 Z M 8.15625 -13.28125 C 6.976562 -13.28125 6.046875 -12.898438 5.359375 -12.140625 C 4.671875 -11.378906 4.265625 -10.328125 4.140625 -8.984375 L 11.78125 -8.984375 C 11.769531 -10.390625 11.445312 -11.457031 10.8125 -12.1875 C 10.1875 -12.914062 9.300781 -13.28125 8.15625 -13.28125 Z M 8.15625 -13.28125 "/></g></g></g><g fill="#000000" fill-opacity="1"><g transform="translate(735.979816, 289.699989)"><g><path d="M 9.484375 -15.265625 C 11.460938 -15.265625 12.988281 -14.582031 14.0625 -13.21875 C 15.144531 -11.851562 15.6875 -9.945312 15.6875 -7.5 C 15.6875 -5.019531 15.140625 -3.101562 14.046875 -1.75 C 12.953125 -0.394531 11.429688 0.28125 9.484375 0.28125 C 8.472656 0.28125 7.570312 0.0976562 6.78125 -0.265625 C 5.988281 -0.640625 5.34375 -1.1875 4.84375 -1.90625 L 4.65625 -1.90625 C 4.363281 -0.8125 4.191406 -0.175781 4.140625 0 L 2.375 0 L 2.375 -21.28125 L 4.84375 -21.28125 L 4.84375 -16.109375 C 4.84375 -15.078125 4.796875 -14.046875 4.703125 -13.015625 L 4.84375 -13.015625 C 5.851562 -14.515625 7.398438 -15.265625 9.484375 -15.265625 Z M 9.078125 -13.21875 C 7.566406 -13.21875 6.484375 -12.789062 5.828125 -11.9375 C 5.171875 -11.082031 4.84375 -9.632812 4.84375 -7.59375 L 4.84375 -7.484375 C 4.84375 -5.429688 5.175781 -3.960938 5.84375 -3.078125 C 6.507812 -2.203125 7.609375 -1.765625 9.140625 -1.765625 C 10.484375 -1.765625 11.484375 -2.257812 12.140625 -3.25 C 12.804688 -4.238281 13.140625 -5.664062 13.140625 -7.53125 C 13.140625 -9.425781 12.804688 -10.847656 12.140625 -11.796875 C 11.472656 -12.742188 10.453125 -13.21875 9.078125 -13.21875 Z M 9.078125 -13.21875 "/></g></g></g></svg>